<svg width="14" height="19" viewBox="0 0 14 19" fill="none" xmlns="http://www.w3.org/2000/svg">
<path d="M7.00001 9.54688C7.92299 9.54688 8.82524 9.28296 9.59267 8.78849C10.3601 8.29402 10.9582 7.59122 11.3114 6.76895C11.6647 5.94668 11.7571 5.04189 11.577 4.16897C11.3969 3.29606 10.9525 2.49423 10.2998 1.8649C9.64719 1.23556 8.81567 0.806977 7.91043 0.633343C7.00518 0.45971 6.06687 0.548825 5.21415 0.889419C4.36143 1.23001 3.63259 1.80679 3.11981 2.54681C2.60703 3.28683 2.33334 4.15686 2.33334 5.04688C2.33457 6.23999 2.82664 7.38389 3.70154 8.22754C4.57644 9.0712 5.76271 9.54569 7.00001 9.54688ZM7.00001 2.04688C7.61533 2.04688 8.21683 2.22282 8.72845 2.55247C9.24007 2.88211 9.63883 3.35065 9.8743 3.89883C10.1098 4.44701 10.1714 5.0502 10.0513 5.63215C9.9313 6.21409 9.63499 6.74864 9.19989 7.1682C8.7648 7.58776 8.21045 7.87348 7.60695 7.98923C7.00346 8.10499 6.37792 8.04558 5.80943 7.81852C5.24095 7.59145 4.75506 7.20693 4.41321 6.71359C4.07136 6.22024 3.88889 5.64022 3.88889 5.04688C3.88889 4.25123 4.21667 3.48817 4.80012 2.92556C5.38356 2.36295 6.17489 2.04688 7.00001 2.04688Z" fill="#003B73"/>
<path d="M7 11.0474C5.14412 11.0494 3.36483 11.7612 2.05253 13.0266C0.740218 14.292 0.00205866 16.0078 0 17.7974C0 17.9963 0.0819442 18.1871 0.227806 18.3277C0.373667 18.4684 0.571498 18.5474 0.777778 18.5474C0.984057 18.5474 1.18189 18.4684 1.32775 18.3277C1.47361 18.1871 1.55556 17.9963 1.55556 17.7974C1.55556 16.405 2.12916 15.0696 3.1502 14.0851C4.17123 13.1005 5.55604 12.5474 7 12.5474C8.44396 12.5474 9.82877 13.1005 10.8498 14.0851C11.8708 15.0696 12.4444 16.405 12.4444 17.7974C12.4444 17.9963 12.5264 18.1871 12.6722 18.3277C12.8181 18.4684 13.0159 18.5474 13.2222 18.5474C13.4285 18.5474 13.6263 18.4684 13.7722 18.3277C13.9181 18.1871 14 17.9963 14 17.7974C13.9979 16.0078 13.2598 14.292 11.9475 13.0266C10.6352 11.7612 8.85588 11.0494 7 11.0474Z" fill="#003B73"/>
</svg>
