<svg width="183" height="85" viewBox="0 0 183 85" fill="none" xmlns="http://www.w3.org/2000/svg">
<path d="M8.03134 72.6707C8.03134 72.6707 25.2849 77.083 51.0179 60.9826M51.0179 60.9826C83.1754 50.7026 80.2504 22.9628 51.1715 29.9441C22.0926 36.9254 51.0179 60.9826 51.0179 60.9826ZM51.0179 60.9826C51.0179 60.9826 76.878 83.2984 167.912 37.8808" stroke="white" stroke-width="2"/>
<path d="M180.441 32.6774C180.629 32.1581 180.36 31.5848 179.841 31.3968L171.378 28.3337C170.859 28.1457 170.286 28.4143 170.098 28.9336C169.91 29.4529 170.178 30.0263 170.698 30.2143L178.22 32.9371L175.497 40.4595C175.309 40.9788 175.578 41.5521 176.097 41.7401C176.616 41.9281 177.19 41.6595 177.378 41.1401L180.441 32.6774ZM144.516 49.8309L179.925 33.2427L179.076 31.4315L143.667 48.0198L144.516 49.8309Z" fill="white"/>
</svg>
