<svg width="87" height="86" viewBox="0 0 87 86" fill="none" xmlns="http://www.w3.org/2000/svg">
<g filter="url(#filter0_d_2_30)">
<ellipse cx="43.3541" cy="38.9814" rx="38.8737" ry="38.4688" fill="#0074B7"/>
</g>
<path d="M30.1771 46.7475C29.3953 47.0794 28.6838 47.0873 28.0427 46.7714C27.491 46.4986 27.071 46.0229 26.7829 45.3441L24.6386 40.2924L25.9013 38.7526L28.3739 44.5776C28.5161 44.9126 28.6869 45.124 28.8864 45.2117C29.0822 45.2908 29.3433 45.2611 29.6698 45.1225L30.8297 44.6302L31.4916 46.1895L30.1771 46.7475ZM30.2591 38.4238C30.0013 38.5332 29.7623 38.5434 29.542 38.4544C29.3218 38.3654 29.1551 38.1877 29.042 37.9214C28.9363 37.6722 28.9279 37.4375 29.0169 37.2172C29.1059 36.9969 29.2793 36.8321 29.537 36.7227C29.7948 36.6133 30.0295 36.6049 30.2412 36.6975C30.4578 36.7779 30.6208 36.947 30.7302 37.2048C30.9746 37.7804 30.8175 38.1867 30.2591 38.4238ZM34.6404 43.0126L35.8002 42.5203L36.4621 44.0797L35.1477 44.6376C34.5205 44.9038 33.9296 44.9569 33.375 44.7969C33.1048 45.307 32.6562 45.6952 32.029 45.9614L30.7145 46.5194L30.0526 44.96L31.2124 44.4677C31.5389 44.3291 31.7417 44.1619 31.8208 43.9661C31.8963 43.7617 31.8629 43.492 31.7207 43.1569L30.7087 40.7728L31.9714 39.233L33.3444 42.4677C33.4867 42.8028 33.6575 43.0141 33.857 43.1018C34.0528 43.181 34.3139 43.1512 34.6404 43.0126ZM35.6856 44.4093L35.0237 42.8499L36.1835 42.3576C36.51 42.219 36.7128 42.0518 36.7919 41.856C36.8674 41.6516 36.834 41.3819 36.6918 41.0468L35.6798 38.6627L36.9425 37.1229L38.3484 40.4349C38.6802 41.2167 38.6986 41.9288 38.4035 42.5712C38.1466 43.1365 37.6788 43.5632 37.0001 43.8513L35.6856 44.4093ZM39.6375 46.1234C39.3798 46.2328 39.1408 46.243 38.9205 46.154C38.7002 46.065 38.5335 45.8873 38.4205 45.621C38.3147 45.3719 38.3063 45.1371 38.3953 44.9169C38.4843 44.6966 38.6577 44.5317 38.9154 44.4223C39.1732 44.3129 39.4061 44.3002 39.6141 44.3843C39.8344 44.4733 39.9993 44.6467 40.1087 44.9044C40.353 45.48 40.1959 45.8864 39.6375 46.1234ZM47.1543 39.5411C46.3725 39.873 45.661 39.8809 45.0199 39.565C44.4682 39.2922 44.0482 38.8165 43.7601 38.1378L41.6158 33.086L42.8785 31.5462L45.3511 37.3712C45.4933 37.7062 45.6641 37.9176 45.8636 38.0053C46.0594 38.0844 46.3205 38.0547 46.647 37.9161L47.8069 37.4238L48.4688 38.9831L47.1543 39.5411ZM51.6176 35.8062L52.7774 35.3139L53.4393 36.8733L52.1249 37.4312C51.4977 37.6974 50.9068 37.7505 50.3522 37.5905C50.082 38.1006 49.6334 38.4888 49.0062 38.755L47.6917 39.313L47.0298 37.7537L48.1896 37.2613C48.5161 37.1228 48.7189 36.9556 48.798 36.7597C48.8735 36.5553 48.8401 36.2856 48.6979 35.9505L47.6859 33.5664L48.9486 32.0266L50.3216 35.2613C50.4639 35.5964 50.6347 35.8077 50.8342 35.8954C51.03 35.9746 51.2911 35.9448 51.6176 35.8062ZM49.4395 39.9551C49.6973 39.8457 49.9302 39.833 50.1382 39.9171C50.3585 40.0061 50.5234 40.1794 50.6328 40.4372C50.8771 41.0128 50.72 41.4191 50.1616 41.6562C49.9039 41.7656 49.6649 41.7758 49.4446 41.6868C49.2243 41.5978 49.0576 41.4201 48.9446 41.1538C48.7075 40.5954 48.8725 40.1958 49.4395 39.9551ZM51.4241 39.1127C51.6819 39.0033 51.9148 38.9906 52.1228 39.0747C52.3431 39.1637 52.508 39.337 52.6174 39.5948C52.8617 40.1704 52.7047 40.5767 52.1462 40.8138C51.8885 40.9232 51.6495 40.9334 51.4292 40.8444C51.2089 40.7554 51.0422 40.5777 50.9292 40.3114C50.6921 39.7529 50.8571 39.3534 51.4241 39.1127ZM52.5096 32.614C52.418 31.8011 52.5596 31.0718 52.9344 30.426C53.3178 29.7766 53.8747 29.2969 54.6049 28.9869C55.5844 28.5712 56.5244 28.5524 57.4251 28.9305C58.2646 29.2839 58.8867 29.9374 59.2915 30.8911L59.5322 31.4581C59.8641 32.2399 59.8781 32.9538 59.5744 33.5999C59.3053 34.1602 58.8271 34.5863 58.1398 34.878L56.516 35.5673C56.2239 35.6913 55.9308 35.765 55.6365 35.7885C55.4067 35.9875 55.15 36.1471 54.8665 36.2675L52.6628 37.2029L52.0009 35.6436L53.3154 35.0856C53.0344 34.8297 52.8137 34.5127 52.6532 34.1347C52.4271 33.6021 52.3792 33.0951 52.5096 32.614ZM57.8776 32.0388L57.6806 31.5749C57.4509 31.0336 57.1078 30.6672 56.6513 30.4757C56.2034 30.2805 55.7218 30.2923 55.2063 30.5111C54.854 30.6606 54.5819 30.8674 54.3898 31.1314C54.8446 31.0803 55.261 31.1774 55.6388 31.4226C56.0252 31.6641 56.3187 32.0211 56.5193 32.4937C56.6798 32.8717 56.7544 33.2506 56.7433 33.6305L57.4521 33.3296C57.77 33.1947 57.9574 33.0391 58.0144 32.8628C58.0763 32.6743 58.0307 32.3996 57.8776 32.0388ZM54.9801 34.2421C55.4534 33.8282 55.577 33.355 55.3509 32.8223C55.2378 32.556 55.0711 32.3783 54.8509 32.2893C54.6355 32.1881 54.4033 32.1904 54.1541 32.2961C53.905 32.4019 53.7377 32.5692 53.6524 32.7981C53.5719 33.0147 53.5883 33.2562 53.7013 33.5225C53.9274 34.0552 54.3537 34.295 54.9801 34.2421Z" fill="white"/>
<defs>
<filter id="filter0_d_2_30" x="0.480469" y="0.512695" width="85.7473" height="84.9375" filterUnits="userSpaceOnUse" color-interpolation-filters="sRGB">
<feFlood flood-opacity="0" result="BackgroundImageFix"/>
<feColorMatrix in="SourceAlpha" type="matrix" values="0 0 0 0 0 0 0 0 0 0 0 0 0 0 0 0 0 0 127 0" result="hardAlpha"/>
<feOffset dy="4"/>
<feGaussianBlur stdDeviation="2"/>
<feComposite in2="hardAlpha" operator="out"/>
<feColorMatrix type="matrix" values="0 0 0 0 0 0 0 0 0 0 0 0 0 0 0 0 0 0 0.25 0"/>
<feBlend mode="normal" in2="BackgroundImageFix" result="effect1_dropShadow_2_30"/>
<feBlend mode="normal" in="SourceGraphic" in2="effect1_dropShadow_2_30" result="shape"/>
</filter>
</defs>
</svg>
