<svg width="58" height="47" viewBox="0 0 58 47" fill="none" xmlns="http://www.w3.org/2000/svg">
<g clip-path="url(#clip0_560_1818)">
<path fill-rule="evenodd" clip-rule="evenodd" d="M35.1 13.6709C35.1 12.0839 36.3768 10.7959 37.95 10.7959C39.5232 10.7959 40.8 12.0839 40.8 13.6709C40.8 15.2579 39.5232 16.5459 37.95 16.5459C36.3768 16.5459 35.1 15.2579 35.1 13.6709ZM37.2375 23.0146L46.5 35.2334H12.3L25.1763 17.4429L33.2589 28.4053L37.2375 23.0146ZM52.2 38.1084C52.2 39.6954 50.9232 40.9834 49.35 40.9834H9.45002C7.87682 40.9834 6.60002 39.6954 6.60002 38.1084V9.3584C6.60002 7.7714 7.87682 6.4834 9.45002 6.4834H49.35C50.9232 6.4834 52.2 7.7714 52.2 9.3584V38.1084ZM52.2 0.733398H6.60002C3.45362 0.733398 0.900024 3.30652 0.900024 6.4834V40.9834C0.900024 44.1574 3.45362 46.7334 6.60002 46.7334H52.2C55.3493 46.7334 57.9 44.1574 57.9 40.9834V6.4834C57.9 3.30652 55.3493 0.733398 52.2 0.733398Z" fill="#003B73"/>
</g>
<defs>
<clipPath id="clip0_560_1818">
<rect width="57" height="46" fill="white" transform="translate(0.900024 0.733398)"/>
</clipPath>
</defs>
</svg>
