<svg width="33" height="33" viewBox="0 0 33 33" fill="none" xmlns="http://www.w3.org/2000/svg">
<path d="M31.5 22.3C30.948 22.3 30.5 22.748 30.5 23.3V30.3H2.5V23.3C2.5 22.748 2.052 22.3 1.5 22.3C0.948 22.3 0.5 22.748 0.5 23.3V31.3C0.5 31.852 0.948 32.3 1.5 32.3H31.5C32.052 32.3 32.5 31.852 32.5 31.3V23.3C32.5 22.748 32.052 22.3 31.5 22.3Z" fill="#121313"/>
<path d="M15.77 24.007C16.159 24.392 16.81 24.396 17.199 24.007L24.198 17.107C24.593 16.716 24.592 16.083 24.198 15.693C23.804 15.302 23.164 15.302 22.77 15.693L17.495 20.893V1.30005C17.495 0.748049 17.043 0.300049 16.485 0.300049C15.927 0.300049 15.475 0.748049 15.475 1.30005V20.893L10.2 15.693C9.80499 15.302 9.16599 15.302 8.77199 15.693C8.37699 16.084 8.37699 16.717 8.77199 17.107L15.77 24.007Z" fill="#121313"/>
</svg>
