<svg width="117" height="115" viewBox="0 0 117 115" fill="none" xmlns="http://www.w3.org/2000/svg">
<path d="M96.2 34.5V100.625C96.2 108.554 89.6977 115 81.7 115H17.9C9.90237 115 3.40002 108.554 3.40002 100.625V14.375C3.40002 6.44629 9.90237 0 17.9 0H61.4227L96.2 34.5Z" fill="#CCCCCC"/>
<path d="M96.2 34.5H75.9C67.9024 34.5 61.4 28.0537 61.4 20.125V0H61.4227L96.2 34.5Z" fill="#0074B7"/>
<path d="M49.8 57.5C49.8 59.0947 48.5086 60.375 46.9 60.375H29.5C27.8914 60.375 26.6 59.0947 26.6 57.5C26.6 55.9053 27.8914 54.625 29.5 54.625H46.9C48.5086 54.625 49.8 55.9053 49.8 57.5Z" fill="#0074B7"/>
<path d="M67.2 69C67.2 70.5947 65.9086 71.875 64.3 71.875H29.5C27.8914 71.875 26.6 70.5947 26.6 69C26.6 67.4053 27.8914 66.125 29.5 66.125H64.3C65.9086 66.125 67.2 67.4053 67.2 69Z" fill="#0074B7"/>
<path d="M67.1094 80.5C67.1094 82.0947 65.8179 83.375 64.2094 83.375H29.5C27.8914 83.375 26.6 82.0947 26.6 80.5C26.6 78.9053 27.8914 77.625 29.5 77.625H64.2094C65.8179 77.625 67.1094 78.9053 67.1094 80.5Z" fill="#0074B7"/>
<path d="M93.3 115C104.511 115 113.6 105.99 113.6 94.875C113.6 83.7603 104.511 74.75 93.3 74.75C82.0886 74.75 73 83.7603 73 94.875C73 105.99 82.0886 115 93.3 115Z" fill="#0074B7"/>
<path d="M101.162 92.8535L95.3617 87.1035L95.3391 87.0811C95.2711 87.0137 95.2031 86.9687 95.1351 86.9014L95.1125 86.8789C95.0445 86.834 94.9992 86.7891 94.9312 86.7441L94.8633 86.6992L94.7047 86.6094L94.614 86.5645C94.5461 86.5195 94.4781 86.4971 94.3875 86.4746L94.2969 86.4521L94.1383 86.3848L94.0476 86.3623L93.8664 86.3174L93.7984 86.2949C93.6172 86.2725 93.4586 86.25 93.2773 86.25H93.2547C93.164 86.25 93.0961 86.25 93.0281 86.25H92.9828C92.8016 86.2725 92.643 86.2949 92.4617 86.3623L92.4164 86.3848C92.3484 86.4072 92.2805 86.4297 92.2125 86.4521L92.1445 86.4746C92.0765 86.4971 91.9859 86.542 91.918 86.5869H91.8953C91.8273 86.6318 91.7367 86.6768 91.6687 86.7217L91.6234 86.7666C91.5781 86.8115 91.5101 86.834 91.4648 86.8789L91.3969 86.9238C91.3289 86.9912 91.2609 87.0361 91.193 87.1035L85.4609 92.8311C84.3508 93.9766 84.3734 95.7959 85.5289 96.8965C86.6617 97.9746 88.4516 97.9746 89.5617 96.8965L90.4226 96.043V100.625C90.4226 102.22 91.7141 103.5 93.3226 103.5C94.9312 103.5 96.2226 102.22 96.2226 100.625V96.0654L97.0836 96.9189C98.1937 98.0645 100.029 98.0869 101.184 96.9863C102.34 95.8857 102.362 94.0664 101.252 92.9209C101.207 92.876 101.184 92.8535 101.162 92.8535Z" fill="#CCCCCC"/>
</svg>
