<svg width="125" height="126" viewBox="0 0 125 126" fill="none" xmlns="http://www.w3.org/2000/svg">
<path d="M91.5625 5.90625H27.625C23.3449 5.90625 19.875 9.43201 19.875 13.7812V112.219C19.875 116.568 23.3449 120.094 27.625 120.094H91.5625C95.8426 120.094 99.3125 116.568 99.3125 112.219V13.7812C99.3125 9.43201 95.8426 5.90625 91.5625 5.90625Z" fill="#CCCCCC"/>
<path d="M74.125 5.90625L91.5625 25.5938H78C76.9733 25.5906 75.9895 25.1748 75.2633 24.4371C74.5373 23.6992 74.1281 22.6995 74.125 21.6562V5.90625Z" fill="#CCCCCC"/>
<path d="M78 26.0938H91.0625V112.219C91.0625 114.177 90.2968 116.054 88.9362 117.436L88.9361 117.436C87.576 118.819 85.7328 119.594 83.8125 119.594H14.0625C12.1423 119.594 10.2991 118.819 8.9388 117.436L8.58242 117.787L8.93878 117.436C7.57825 116.054 6.8125 114.177 6.8125 112.219V13.7812C6.8125 11.8227 7.57825 9.94599 8.93878 8.56349C10.2991 7.18128 12.1423 6.40625 14.0625 6.40625H73.625V21.6562V21.6577C73.6285 22.8305 74.0884 23.9559 74.9069 24.7878L74.907 24.7879C75.7259 25.6198 76.8371 26.0902 77.9985 26.0938H78Z" fill="white" stroke="#0074B7"/>
<path d="M37.3125 41.3438C39.4527 41.3438 41.1875 39.5809 41.1875 37.4062C41.1875 35.2316 39.4527 33.4688 37.3125 33.4688C35.1723 33.4688 33.4375 35.2316 33.4375 37.4062C33.4375 39.5809 35.1723 41.3438 37.3125 41.3438Z" fill="#0074B7"/>
<path d="M21.8125 25.5938C23.9527 25.5938 25.6875 23.8309 25.6875 21.6562C25.6875 19.4816 23.9527 17.7188 21.8125 17.7188C19.6724 17.7188 17.9375 19.4816 17.9375 21.6562C17.9375 23.8309 19.6724 25.5938 21.8125 25.5938Z" fill="#0074B7"/>
<path d="M91.5625 45.2812V112.219C91.5625 114.307 90.746 116.31 89.2925 117.787C87.8392 119.264 85.868 120.094 83.8125 120.094H60.5625V49.2188C60.5656 48.1755 60.9748 47.1758 61.7008 46.4379C62.427 45.7002 63.4108 45.2844 64.4375 45.2812H91.5625Z" fill="#CCCCCC"/>
<path d="M114.812 41.3438H68.3125C66.1723 41.3438 64.4375 43.1066 64.4375 45.2812V116.156C64.4375 118.331 66.1723 120.094 68.3125 120.094H114.812C116.953 120.094 118.688 118.331 118.688 116.156V45.2812C118.688 43.1066 116.953 41.3438 114.812 41.3438Z" fill="#E6E7E8"/>
<path d="M110.938 104.344H103.188V112.219H110.938V104.344Z" fill="#0074B7"/>
<path d="M95.4375 104.344H87.6875V112.219H95.4375V104.344Z" fill="#0074B7"/>
<path d="M79.9375 104.344H72.1875V112.219H79.9375V104.344Z" fill="#0074B7"/>
<path d="M79.9375 88.5938H72.1875V96.4688H79.9375V88.5938Z" fill="#0074B7"/>
<path d="M95.4375 88.5938H87.6875V96.4688H95.4375V88.5938Z" fill="#0074B7"/>
<path d="M110.938 88.5938H103.188V96.4688H110.938V88.5938Z" fill="#0074B7"/>
<path d="M110.938 72.8438H103.188V80.7188H110.938V72.8438Z" fill="#0074B7"/>
<path d="M95.4375 72.8438H87.6875V80.7188H95.4375V72.8438Z" fill="#0074B7"/>
<path d="M79.9375 72.8438H72.1875V80.7188H79.9375V72.8438Z" fill="#0074B7"/>
<path d="M109 49.2188H74.125C73.0549 49.2188 72.1875 50.1002 72.1875 51.1875V63C72.1875 64.0873 73.0549 64.9688 74.125 64.9688H109C110.07 64.9688 110.938 64.0873 110.938 63V51.1875C110.938 50.1002 110.07 49.2188 109 49.2188Z" fill="white"/>
<path d="M101.25 55.125H97.375V59.0625H101.25V55.125Z" fill="#0074B7"/>
<path d="M93.5 55.125H89.625V59.0625H93.5V55.125Z" fill="#0074B7"/>
<path d="M85.75 55.125H81.875V59.0625H85.75V55.125Z" fill="#0074B7"/>
<path d="M39.8188 16.3257L16.5682 39.9512L19.3083 42.7354L42.5588 19.1099L39.8188 16.3257Z" fill="#0074B7"/>
<path d="M68.3125 15.75H48.9375V19.6875H68.3125V15.75Z" fill="#CCCCCC"/>
<path d="M68.3125 23.625H48.9375V27.5625H68.3125V23.625Z" fill="#CCCCCC"/>
<path d="M68.3125 31.5H48.9375V35.4375H68.3125V31.5Z" fill="#CCCCCC"/>
<path d="M23.75 51.1875H16V55.125H23.75V51.1875Z" fill="#CCCCCC"/>
<path d="M54.75 51.1875H27.625V55.125H54.75V51.1875Z" fill="#CCCCCC"/>
<path d="M23.75 59.0625H16V63H23.75V59.0625Z" fill="#CCCCCC"/>
<path d="M54.75 59.0625H27.625V63H54.75V59.0625Z" fill="#CCCCCC"/>
<path d="M23.75 66.9375H16V70.875H23.75V66.9375Z" fill="#CCCCCC"/>
<path d="M54.75 66.9375H27.625V70.875H54.75V66.9375Z" fill="#CCCCCC"/>
<path d="M23.75 74.8125H16V78.75H23.75V74.8125Z" fill="#CCCCCC"/>
<path d="M54.75 74.8125H27.625V78.75H54.75V74.8125Z" fill="#CCCCCC"/>
<path d="M23.75 82.6875H16V86.625H23.75V82.6875Z" fill="#CCCCCC"/>
<path d="M54.75 82.6875H27.625V86.625H54.75V82.6875Z" fill="#CCCCCC"/>
<path d="M23.75 90.5625H16V94.5H23.75V90.5625Z" fill="#CCCCCC"/>
<path d="M54.75 90.5625H27.625V94.5H54.75V90.5625Z" fill="#CCCCCC"/>
</svg>
