<svg width="127" height="127" viewBox="0 0 127 127" fill="none" xmlns="http://www.w3.org/2000/svg">
<path d="M89.2969 17.8594H21.8281V113.109H89.2969V17.8594Z" fill="white"/>
<path d="M89.2969 96.6391V113.109H21.8281V17.8594H31.75V21.8281C31.752 38.8979 37.3959 55.4883 47.8034 69.0182C58.211 82.548 72.7988 92.2586 89.2969 96.6391Z" fill="white"/>
<path d="M33.7344 17.8594H75.4062V21.8281C75.4062 23.4069 74.779 24.9212 73.6626 26.0376C72.5462 27.154 71.0319 27.7812 69.4531 27.7812H39.6875C38.1087 27.7812 36.5945 27.154 35.478 26.0376C34.3616 24.9212 33.7344 23.4069 33.7344 21.8281V17.8594Z" fill="white"/>
<path d="M63.5 8.92969C63.5 8.14026 63.1865 7.38315 62.6283 6.82494C62.0701 6.26674 61.3128 5.95312 60.5234 5.95312H50.6016C49.8122 5.95312 49.0549 6.26674 48.4967 6.82494C47.9385 7.38315 47.625 8.14026 47.625 8.92969C47.625 9.71911 47.3115 10.4762 46.7533 11.0344C46.1951 11.5926 45.4378 11.9062 44.6484 11.9062H40.6797C39.8903 11.9062 39.1331 12.2199 38.5749 12.7781C38.0167 13.3363 37.7031 14.0934 37.7031 14.8828V20.8359C37.7031 21.6253 38.0167 22.3826 38.5749 22.9408C39.1331 23.499 39.8903 23.8125 40.6797 23.8125H70.4453C71.2347 23.8125 71.9919 23.499 72.5501 22.9408C73.1083 22.3826 73.4219 21.6253 73.4219 20.8359V14.8828C73.4219 14.0934 73.1083 13.3363 72.5501 12.7781C71.9919 12.2199 71.2347 11.9062 70.4453 11.9062H66.4766C65.6872 11.9062 64.9299 11.5926 64.3717 11.0344C63.8135 10.4762 63.5 9.71911 63.5 8.92969Z" fill="#0074B7"/>
<path d="M105.172 77.3906V71.4375H81.3594V77.3906C79.2542 77.3906 77.2352 78.2268 75.7468 79.7155C74.2581 81.204 73.4219 83.2229 73.4219 85.3281V113.109C73.4219 115.215 74.2581 117.234 75.7468 118.722C77.2352 120.211 79.2542 121.047 81.3594 121.047H105.172C107.277 121.047 109.296 120.211 110.784 118.722C112.273 117.234 113.109 115.215 113.109 113.109V85.3281C113.109 83.2229 112.273 81.204 110.784 79.7155C109.296 78.2268 107.277 77.3906 105.172 77.3906Z" fill="white"/>
<path d="M113.109 108.883V113.109C113.109 115.215 112.273 117.234 110.784 118.722C109.296 120.211 107.277 121.047 105.172 121.047H81.3594C79.2542 121.047 77.2352 120.211 75.7468 118.722C74.2581 117.234 73.4219 115.215 73.4219 113.109V85.3281C73.4219 83.2229 74.2581 81.204 75.7468 79.7155C77.2352 78.2268 79.2542 77.3906 81.3594 77.3906V71.4375H105.172V73.4219H91.2812C90.5877 73.4235 89.9065 73.6062 89.3054 73.9523C88.7041 74.2982 88.2039 74.7955 87.8542 75.3943C87.1061 76.5669 85.9685 77.4381 84.6415 77.855C83.5366 78.2528 82.5317 78.8866 81.6967 79.7123C80.2132 81.2052 79.3788 83.2235 79.375 85.3281V87.3125C79.375 93.1017 81.6747 98.6538 85.7683 102.747C89.8618 106.841 95.4139 109.141 101.203 109.141H111.125C111.795 109.147 112.463 109.06 113.109 108.883Z" fill="white"/>
<path d="M109.141 63.5H77.3906V71.4375H109.141V63.5Z" fill="#0074B7"/>
<path d="M103.188 99.2188H97.2344V93.2656H89.2969V99.2188H83.3438V107.156H89.2969V113.109H97.2344V107.156H103.188V99.2188Z" fill="#0074B7"/>
<path d="M59.5312 97.2344C61.11 97.2344 62.6243 97.8616 63.7407 98.978C64.8571 100.094 65.4844 101.609 65.4844 103.188V109.141H53.5781V103.188C53.5781 101.609 54.2054 100.094 55.3218 98.978C56.4382 97.8616 57.9525 97.2344 59.5312 97.2344Z" fill="white"/>
<path d="M53.5781 109.141H65.4844V115.094C65.4844 116.673 64.8571 118.187 63.7407 119.303C62.6243 120.42 61.11 121.047 59.5312 121.047C57.9525 121.047 56.4382 120.42 55.3218 119.303C54.2054 118.187 53.5781 116.673 53.5781 115.094V109.141Z" fill="#0074B7"/>
<path d="M52.5891 99.6219C53.9566 100.411 54.9543 101.711 55.3629 103.237C55.7715 104.762 55.5575 106.387 54.7682 107.754L51.7916 112.909L41.4806 106.956L44.4572 101.801C45.2465 100.434 46.5467 99.4358 48.0719 99.0272C49.5969 98.6184 51.2219 98.8323 52.5891 99.6219Z" fill="white"/>
<path d="M41.4764 106.963L51.7874 112.916L48.8109 118.071C48.0215 119.439 46.7213 120.436 45.1961 120.845C43.6711 121.254 42.0461 121.04 40.6789 120.25C39.3115 119.461 38.3137 118.161 37.9051 116.635C37.4965 115.11 37.7105 113.485 38.4998 112.118L41.4764 106.963Z" fill="#0074B7"/>
<path d="M31.75 73.4219H39.6875C40.2138 73.4219 40.7186 73.2127 41.0907 72.8407C41.4627 72.4686 41.6719 71.9638 41.6719 71.4375V63.9802L46.3213 68.6296L43.5134 71.4375C43.1413 71.8096 42.9324 72.3142 42.9324 72.8405C42.9324 73.3667 43.1413 73.8713 43.5134 74.2434L49.1272 79.8572C49.5064 80.2158 50.0082 80.4154 50.5301 80.4154C51.052 80.4154 51.5539 80.2158 51.9331 79.8572L54.739 77.0513L58.2692 80.5815C58.6413 80.9536 59.1459 81.1625 59.6721 81.1625C60.1984 81.1625 60.703 80.9536 61.0751 80.5815L66.6889 74.9677C67.061 74.5956 67.2699 74.091 67.2699 73.5647C67.2699 73.0385 67.061 72.5339 66.6889 72.1618L63.1587 68.6316L65.9646 65.8237C66.3367 65.4516 66.5456 64.947 66.5456 64.4207C66.5456 63.8945 66.3367 63.3899 65.9646 63.0178L60.3508 57.406C59.9716 57.0474 59.4697 56.8478 58.9478 56.8478C58.426 56.8478 57.9241 57.0474 57.5449 57.406L54.739 60.2119L50.3476 55.8205C53.0447 54.3334 55.1712 51.992 56.3926 49.1647C57.6139 46.3373 57.861 43.1842 57.0948 40.2011C56.3287 37.2179 54.5929 34.574 52.1603 32.685C49.7276 30.7959 46.7362 29.769 43.6562 29.7656H31.75C31.2237 29.7656 30.7189 29.9748 30.3468 30.3468C29.9748 30.7189 29.7656 31.2237 29.7656 31.75V71.4375C29.7656 71.9638 29.9748 72.4686 30.3468 72.8407C30.7189 73.2127 31.2237 73.4219 31.75 73.4219ZM33.7344 33.7344H43.6562C46.0498 33.7423 48.3598 34.6152 50.1604 36.1922C51.9611 37.7692 53.131 39.9441 53.4543 42.3158C53.7778 44.6873 53.2328 47.096 51.9202 49.0976C50.6075 51.099 48.6154 52.5586 46.3113 53.207C45.9774 53.2999 45.6736 53.4785 45.4301 53.7252C45.1866 53.972 45.012 54.2782 44.9237 54.6134C44.8354 54.9485 44.8364 55.3012 44.9266 55.6357C45.0169 55.9705 45.1933 56.2757 45.4382 56.521L53.336 64.4188C53.7152 64.7773 54.2171 64.977 54.739 64.977C55.2609 64.977 55.7627 64.7773 56.1419 64.4188L58.9478 61.6129L61.7557 64.4188L58.9498 67.2267C58.5778 67.5987 58.3688 68.1034 58.3688 68.6296C58.3688 69.1559 58.5778 69.6605 58.9498 70.0326L62.48 73.5628L59.6721 76.3707L56.1419 72.8385C55.7699 72.4664 55.2652 72.2574 54.739 72.2574C54.2127 72.2574 53.7081 72.4664 53.336 72.8385L50.5301 75.6464L47.7222 72.8385L50.5301 70.0326C50.9022 69.6605 51.1111 69.1559 51.1111 68.6296C51.1111 68.1034 50.9022 67.5987 50.5301 67.2267L41.0905 57.787C40.8128 57.5096 40.4594 57.3207 40.0745 57.2441C39.6897 57.1675 39.2906 57.207 38.9281 57.357C38.5655 57.5072 38.2558 57.7614 38.0377 58.0876C37.8196 58.414 37.7031 58.7974 37.7031 59.1899V69.4531H33.7344V33.7344Z" fill="white"/>
<path d="M39.6875 49.6094H43.6562C45.235 49.6094 46.7493 48.9821 47.8657 47.8657C48.9821 46.7493 49.6094 45.235 49.6094 43.6562C49.6094 42.0775 48.9821 40.5632 47.8657 39.4468C46.7493 38.3304 45.235 37.7031 43.6562 37.7031H39.6875C39.1612 37.7031 38.6564 37.9123 38.2843 38.2843C37.9123 38.6564 37.7031 39.1612 37.7031 39.6875V47.625C37.7031 48.1513 37.9123 48.6561 38.2843 49.0282C38.6564 49.4002 39.1612 49.6094 39.6875 49.6094ZM41.6719 41.6719H43.6562C44.1825 41.6719 44.6873 41.881 45.0594 42.2531C45.4315 42.6252 45.6406 43.13 45.6406 43.6562C45.6406 44.1825 45.4315 44.6873 45.0594 45.0594C44.6873 45.4315 44.1825 45.6406 43.6562 45.6406H41.6719V41.6719Z" fill="white"/>
<path d="M107.156 75.6047V73.4219H109.141C109.667 73.4219 110.172 73.2127 110.544 72.8407C110.916 72.4686 111.125 71.9638 111.125 71.4375V63.5C111.125 62.9737 110.916 62.4689 110.544 62.0968C110.172 61.7248 109.667 61.5156 109.141 61.5156H99.2188V23.8125C99.2188 21.7073 98.3825 19.6884 96.8939 18.1998C95.4054 16.7113 93.3865 15.875 91.2812 15.875H75.4062V14.8828C75.4062 13.5671 74.8836 12.3052 73.9533 11.3749C73.0228 10.4445 71.761 9.92188 70.4453 9.92188H66.4766C66.2134 9.92188 65.961 9.81734 65.7749 9.63126C65.589 9.44521 65.4844 9.19284 65.4844 8.92969C65.4844 7.61397 64.9617 6.35212 64.0314 5.42177C63.1009 4.49141 61.8391 3.96875 60.5234 3.96875H50.6016C49.2859 3.96875 48.0241 4.49141 47.0936 5.42177C46.1633 6.35212 45.6406 7.61397 45.6406 8.92969C45.6406 9.19284 45.536 9.44521 45.3501 9.63126C45.164 9.81734 44.9116 9.92188 44.6484 9.92188H40.6797C39.364 9.92188 38.1022 10.4445 37.1717 11.3749C36.2414 12.3052 35.7188 13.5671 35.7188 14.8828V15.875H19.8438C17.7386 15.875 15.7197 16.7113 14.2311 18.1998C12.7425 19.6884 11.9062 21.7073 11.9062 23.8125V115.094C11.9062 117.199 12.7425 119.218 14.2311 120.706C15.7197 122.195 17.7386 123.031 19.8438 123.031H105.172C107.802 123.028 110.324 121.982 112.184 120.122C114.044 118.262 115.091 115.74 115.094 113.109V85.3281C115.091 83.0415 114.3 80.826 112.854 79.0547C111.408 77.2835 109.396 76.0649 107.156 75.6047ZM105.172 79.375C106.399 79.3802 107.594 79.7641 108.594 80.4745C109.595 81.1849 110.351 82.1871 110.76 83.3438H75.7714C76.1804 82.1871 76.9366 81.1849 77.9369 80.4745C78.9372 79.7641 80.1324 79.3802 81.3594 79.375C81.8856 79.375 82.3905 79.1658 82.7625 78.7938C83.1346 78.4217 83.3438 77.9169 83.3438 77.3906V73.4219H103.188V77.3906C103.188 77.9169 103.397 78.4217 103.769 78.7938C104.141 79.1658 104.646 79.375 105.172 79.375ZM63.5 107.156H57.1718C57.4985 106.097 57.5997 104.981 57.4687 103.88C57.3379 102.779 56.9778 101.718 56.4118 100.765C56.9174 100.112 57.6143 99.6339 58.4049 99.3971C59.1957 99.1602 60.0406 99.1763 60.8217 99.4434C61.6027 99.7103 62.2808 100.215 62.761 100.886C63.2412 101.557 63.4996 102.362 63.5 103.188V107.156ZM53.0443 106.759L51.06 110.196L44.1841 106.228L46.1685 102.791C46.4272 102.336 46.7733 101.936 47.187 101.616C47.6006 101.295 48.0737 101.059 48.5787 100.922C49.0839 100.785 49.6112 100.749 50.1301 100.817C50.6492 100.884 51.1496 101.053 51.6031 101.315C52.0563 101.577 52.4534 101.926 52.7713 102.341C53.0892 102.757 53.3217 103.232 53.4555 103.738C53.5892 104.244 53.6216 104.771 53.5507 105.29C53.4799 105.808 53.3071 106.308 53.0423 106.759H53.0443ZM42.2017 109.666L49.0756 113.635L47.0912 117.074C46.5528 117.961 45.6884 118.602 44.6834 118.859C43.6783 119.117 42.6123 118.97 41.7137 118.452C40.8152 117.933 40.1558 117.082 39.8764 116.083C39.597 115.084 39.7202 114.015 40.2193 113.105L42.2017 109.666ZM50.5301 119.062L51.8061 116.852C51.9894 117.63 52.2899 118.375 52.6971 119.062H50.5301ZM55.5625 115.094V111.125H63.5V115.094C63.5 116.146 63.0819 117.156 62.3376 117.9C61.5932 118.644 60.5838 119.062 59.5312 119.062C58.4787 119.062 57.4693 118.644 56.7249 117.9C55.9806 117.156 55.5625 116.146 55.5625 115.094ZM67.4688 115.094H71.6359C71.9421 116.538 72.5694 117.894 73.4715 119.062H66.3654C67.0796 117.861 67.4606 116.491 67.4688 115.094ZM107.156 69.4531H79.375V65.4844H107.156V69.4531ZM95.25 23.8125V61.5156H91.2812V19.8438C92.3338 19.8438 93.3432 20.2619 94.0876 21.0062C94.8319 21.7505 95.25 22.76 95.25 23.8125ZM39.6875 14.8828C39.6875 14.6197 39.7921 14.3673 39.978 14.1812C40.1641 13.9952 40.4166 13.8906 40.6797 13.8906H44.6484C45.2999 13.8906 45.945 13.7623 46.5469 13.513C47.1487 13.2637 47.6956 12.8983 48.1564 12.4376C48.617 11.9769 48.9825 11.43 49.2317 10.8282C49.481 10.2263 49.6094 9.58116 49.6094 8.92969C49.6094 8.66654 49.714 8.41417 49.8999 8.22811C50.086 8.04204 50.3384 7.9375 50.6016 7.9375H60.5234C60.7866 7.9375 61.039 8.04204 61.2251 8.22811C61.411 8.41417 61.5156 8.66654 61.5156 8.92969C61.5156 10.2454 62.0383 11.5073 62.9686 12.4376C63.8991 13.368 65.1609 13.8906 66.4766 13.8906H70.4453C70.7084 13.8906 70.9609 13.9952 71.147 14.1812C71.3329 14.3673 71.4375 14.6197 71.4375 14.8828V20.8359C71.4375 21.0991 71.3329 21.3515 71.147 21.5376C70.9609 21.7235 70.7084 21.8281 70.4453 21.8281H40.6797C40.4166 21.8281 40.1641 21.7235 39.978 21.5376C39.7921 21.3515 39.6875 21.0991 39.6875 20.8359V14.8828ZM35.7188 19.8438V20.8359C35.7188 22.1516 36.2414 23.4134 37.1717 24.3439C38.1022 25.2742 39.364 25.7969 40.6797 25.7969H70.4453C71.761 25.7969 73.0228 25.2742 73.9533 24.3439C74.8836 23.4134 75.4062 22.1516 75.4062 20.8359V19.8438H87.3125V61.5156H77.3906C76.8644 61.5156 76.3595 61.7248 75.9875 62.0968C75.6154 62.4689 75.4062 62.9737 75.4062 63.5V71.4375C75.4062 71.9638 75.6154 72.4686 75.9875 72.8407C76.3595 73.2127 76.8644 73.4219 77.3906 73.4219H79.375V75.6047C77.1352 76.0649 75.1229 77.2835 73.6769 79.0547C72.2309 80.826 71.4401 83.0415 71.4375 85.3281V111.125H67.4688V103.188C67.4707 101.578 66.9824 100.005 66.0688 98.6794C65.1552 97.3538 63.8596 96.3378 62.3544 95.7665C60.8491 95.195 59.2056 95.0956 57.6425 95.4812C56.0794 95.8667 54.6707 96.7192 53.6039 97.9249L53.5781 97.9071C51.7549 96.8566 49.5895 96.572 47.5567 97.1153C45.5237 97.6588 43.7894 98.9862 42.7335 100.806L36.7804 111.125H23.8125V19.8438H35.7188ZM15.875 115.094V23.8125C15.875 22.76 16.2931 21.7505 17.0374 21.0062C17.7817 20.2619 18.7912 19.8438 19.8438 19.8438V113.109C19.8438 113.636 20.0529 114.14 20.425 114.513C20.797 114.885 21.3019 115.094 21.8281 115.094H35.7545C35.7563 116.488 36.1251 117.856 36.824 119.062H19.8438C18.7912 119.062 17.7817 118.644 17.0374 117.9C16.2931 117.156 15.875 116.146 15.875 115.094ZM105.172 119.062H81.3594C79.7806 119.062 78.2663 118.435 77.1499 117.319C76.0335 116.202 75.4062 114.688 75.4062 113.109V87.3125H111.125V113.109C111.125 114.688 110.498 116.202 109.381 117.319C108.265 118.435 106.751 119.062 105.172 119.062Z" fill="#CCCCCC"/>
<path d="M103.188 97.2344H99.2188V93.2656C99.2188 92.7394 99.0096 92.2345 98.6375 91.8625C98.2655 91.4904 97.7606 91.2812 97.2344 91.2812H89.2969C88.7706 91.2812 88.2658 91.4904 87.8937 91.8625C87.5217 92.2345 87.3125 92.7394 87.3125 93.2656V97.2344H83.3438C82.8175 97.2344 82.3127 97.4435 81.9406 97.8156C81.5685 98.1877 81.3594 98.6925 81.3594 99.2188V107.156C81.3594 107.683 81.5685 108.187 81.9406 108.559C82.3127 108.931 82.8175 109.141 83.3438 109.141H87.3125V113.109C87.3125 113.636 87.5217 114.14 87.8937 114.513C88.2658 114.885 88.7706 115.094 89.2969 115.094H97.2344C97.7606 115.094 98.2655 114.885 98.6375 114.513C99.0096 114.14 99.2188 113.636 99.2188 113.109V109.141H103.188C103.714 109.141 104.219 108.931 104.591 108.559C104.963 108.187 105.172 107.683 105.172 107.156V99.2188C105.172 98.6925 104.963 98.1877 104.591 97.8156C104.219 97.4435 103.714 97.2344 103.188 97.2344ZM101.203 105.172H97.2344C96.7081 105.172 96.2033 105.381 95.8312 105.753C95.4592 106.125 95.25 106.63 95.25 107.156V111.125H91.2812V107.156C91.2812 106.63 91.0721 106.125 90.7 105.753C90.328 105.381 89.8231 105.172 89.2969 105.172H85.3281V101.203H89.2969C89.8231 101.203 90.328 100.994 90.7 100.622C91.0721 100.25 91.2812 99.745 91.2812 99.2188V95.25H95.25V99.2188C95.25 99.745 95.4592 100.25 95.8312 100.622C96.2033 100.994 96.7081 101.203 97.2344 101.203H101.203V105.172Z" fill="#CCCCCC"/>
<path d="M71.4375 41.6719H81.3594C81.8856 41.6719 82.3905 41.4627 82.7625 41.0907C83.1346 40.7186 83.3438 40.2138 83.3438 39.6875C83.3438 39.1612 83.1346 38.6564 82.7625 38.2843C82.3905 37.9123 81.8856 37.7031 81.3594 37.7031H71.4375C70.9112 37.7031 70.4064 37.9123 70.0343 38.2843C69.6623 38.6564 69.4531 39.1612 69.4531 39.6875C69.4531 40.2138 69.6623 40.7186 70.0343 41.0907C70.4064 41.4627 70.9112 41.6719 71.4375 41.6719Z" fill="#CCCCCC"/>
<path d="M67.4688 49.6094H81.3594C81.8856 49.6094 82.3905 49.4002 82.7625 49.0282C83.1346 48.6561 83.3438 48.1513 83.3438 47.625C83.3438 47.0987 83.1346 46.5939 82.7625 46.2218C82.3905 45.8498 81.8856 45.6406 81.3594 45.6406H67.4688C66.9425 45.6406 66.4377 45.8498 66.0656 46.2218C65.6935 46.5939 65.4844 47.0987 65.4844 47.625C65.4844 48.1513 65.6935 48.6561 66.0656 49.0282C66.4377 49.4002 66.9425 49.6094 67.4688 49.6094Z" fill="#CCCCCC"/>
<path d="M67.4688 57.5469H81.3594C81.8856 57.5469 82.3905 57.3377 82.7625 56.9657C83.1346 56.5936 83.3438 56.0888 83.3438 55.5625C83.3438 55.0362 83.1346 54.5314 82.7625 54.1593C82.3905 53.7873 81.8856 53.5781 81.3594 53.5781H67.4688C66.9425 53.5781 66.4377 53.7873 66.0656 54.1593C65.6935 54.5314 65.4844 55.0362 65.4844 55.5625C65.4844 56.0888 65.6935 56.5936 66.0656 56.9657C66.4377 57.3377 66.9425 57.5469 67.4688 57.5469Z" fill="#CCCCCC"/>
</svg>
