<svg width="20" height="20" viewBox="0 0 20 20" fill="none" xmlns="http://www.w3.org/2000/svg">
<g clip-path="url(#clip0_3_1780)">
<path d="M18.3109 9.67454V8.81749C18.3109 7.84095 17.5192 7.04888 16.5418 7.04888H12.9401H12.4401V6.54888V2.94703C12.4401 1.96988 11.6484 1.17822 10.6713 1.17822H9.36084H9.15411C8.17721 1.17822 7.38502 1.97005 7.38502 2.94703V6.17244L7.41749 6.08196C7.53844 5.74484 7.87792 5.53634 8.23438 5.5828L18.3109 9.67454ZM18.3109 9.67454H12.8826C12.8127 9.67454 12.7446 9.68405 12.6795 9.702M18.3109 9.67454L12.6795 9.702M12.6795 9.702L12.3167 7.11515L12.3166 7.11503C12.2656 6.75178 11.9633 6.47614 11.5969 6.45871L11.5945 6.45861C11.2319 6.44314 10.9037 6.68534 10.8183 7.04444C10.8183 7.04452 10.8182 7.0446 10.8182 7.04467L10.5556 8.14807C10.4365 7.88514 10.1754 7.70702 9.87796 7.70019M12.6795 9.702L8.23473 5.58285C8.59052 5.6293 8.86576 5.91726 8.89633 6.2746C8.89633 6.27463 8.89633 6.27466 8.89634 6.27469L9.08003 8.42083L9.12487 8.25921L9.12488 8.25916C9.21775 7.92456 9.52585 7.69172 9.87796 7.70019M9.87796 7.70019C9.87822 7.7002 9.87848 7.7002 9.87874 7.70021L9.86621 8.20005L9.87719 7.70017C9.87745 7.70018 9.87771 7.70019 9.87796 7.70019ZM6.11798 9.70345H1.51465V8.81745C1.51465 7.84087 2.30691 7.04883 3.28307 7.04883H6.88502H7.07054L6.11798 9.70345Z" fill="white" stroke="#003B73"/>
<path d="M12.4403 13.121V16.2055C12.4403 17.1828 11.6484 17.9748 10.6715 17.9748H9.36103H9.1543C8.17753 17.9748 7.38521 17.1827 7.38521 16.2055V12.6036V12.1036H6.88521H3.28326C2.63392 12.1036 2.06564 11.7528 1.75831 11.2301H6.65525C6.97723 11.2301 7.26482 11.0281 7.37368 10.7246C7.37369 10.7246 7.37371 10.7245 7.37373 10.7245L7.6737 9.88842L7.92102 12.778L7.92103 12.7782L8.41921 12.7356C8.43003 12.8625 8.53022 12.9634 8.65716 12.9753C8.66538 12.976 8.67356 12.9763 8.68168 12.9763C8.7988 12.9763 8.90328 12.8983 8.93521 12.7835L12.4403 13.121ZM12.4403 13.121C12.3699 13.1358 12.2965 13.1407 12.2218 13.1346C11.8663 13.1056 11.5774 12.8343 11.5277 12.4798C11.5277 12.4797 11.5277 12.4797 11.5277 12.4796L11.3669 11.3329L11.2941 11.6385L11.2941 11.6385C11.2123 11.9822 10.9051 12.2251 10.5517 12.2251H10.5516H10.5516H10.5516H10.5516H10.5516H10.5516H10.5516H10.5516H10.5516H10.5516H10.5516H10.5516H10.5515H10.5515H10.5515H10.5515H10.5515H10.5515H10.5515H10.5515H10.5515H10.5515H10.5515H10.5515H10.5514H10.5514H10.5514H10.5514H10.5514H10.5514H10.5514H10.5514H10.5514H10.5514H10.5514H10.5514H10.5514H10.5513H10.5513H10.5513H10.5513H10.5513H10.5513H10.5513H10.5513H10.5513H10.5513H10.5513H10.5513H10.5512H10.5512H10.5512H10.5512H10.5512H10.5512H10.5512H10.5512H10.5512H10.5512H10.5512H10.5512H10.5512H10.5511H10.5511H10.5511H10.5511H10.5511H10.5511H10.5511H10.5511H10.5511H10.5511H10.5511H10.5511H10.5511H10.551H10.551H10.551H10.551H10.551H10.551H10.551H10.551H10.551H10.551H10.551H10.551H10.551H10.5509H10.5509H10.5509H10.5509H10.5509H10.5509H10.5509H10.5509H10.5509H10.5509H10.5509H10.5509H10.5509H10.5508H10.5508H10.5508H10.5508H10.5508H10.5508H10.5508H10.5508H10.5508H10.5508H10.5508H10.5508H10.5508H10.5507H10.5507H10.5507H10.5507H10.5507H10.5507H10.5507H10.5487C10.1945 12.2237 9.88752 11.9787 9.80787 11.6332C9.80787 11.6332 9.80787 11.6332 9.80787 11.6332L9.79216 11.565L12.4403 13.121ZM16.542 12.1036H13.1662L13.4455 11.2012H18.0846C17.7815 11.7398 17.2042 12.1036 16.542 12.1036Z" fill="white" stroke="#003B73"/>
<path d="M19.7301 10.1746H18.811H12.8827C12.7673 10.1746 12.6653 10.2498 12.6312 10.3599L12.3806 11.1699L11.8216 7.18463C11.804 7.05933 11.6997 6.9642 11.5733 6.95818C11.447 6.9528 11.334 7.03711 11.3048 7.16024L10.5557 10.3074L10.117 8.40417C10.09 8.28681 9.98669 8.20273 9.8663 8.20009C9.74538 8.19706 9.63899 8.27685 9.60676 8.39291L8.81896 11.2326L8.39824 6.31727C8.3877 6.19395 8.29271 6.09457 8.16996 6.07865C8.04712 6.06259 7.93 6.13435 7.8882 6.25085L6.46997 10.2035H1.01478H0.195908C0.0505065 10.2035 -0.0673828 10.3214 -0.0673828 10.4669C-0.0673828 10.6122 0.0504585 10.7301 0.195908 10.7301H1.04975H6.6551C6.7663 10.7301 6.86539 10.6604 6.9029 10.5558L7.97641 7.56369L8.41906 12.7355C8.42993 12.8625 8.53012 12.9634 8.65701 12.9753C8.66523 12.9759 8.67341 12.9763 8.68154 12.9763C8.79871 12.9763 8.90313 12.8983 8.93506 12.7835L9.83681 9.53313L10.295 11.5208C10.3224 11.64 10.4283 11.7245 10.5505 11.725C10.5509 11.725 10.5512 11.725 10.5515 11.725C10.6733 11.725 10.7794 11.6413 10.8076 11.5226L11.4938 8.63942L12.0227 12.4103C12.0398 12.5325 12.1394 12.6263 12.2623 12.6363C12.3849 12.6463 12.4984 12.5694 12.5349 12.4517L13.0767 10.7011H18.7811H19.73C19.8754 10.7011 19.9932 10.5832 19.9932 10.4378C19.9933 10.2924 19.8755 10.1746 19.7301 10.1746Z" fill="white"/>
</g>
<defs>
<clipPath id="clip0_3_1780">
<rect width="19" height="19" fill="white" transform="translate(0.462891 0.546875)"/>
</clipPath>
</defs>
</svg>
