<svg width="21" height="18" viewBox="0 0 21 18" fill="none" xmlns="http://www.w3.org/2000/svg">
<path d="M20.125 9.3322H19.2841C19.9973 8.09021 20.2647 6.62263 20.0385 5.19276C19.8121 3.76286 19.1069 2.46426 18.0493 1.52985C16.9916 0.595456 15.6508 0.0864355 14.2673 0.0941034C12.8838 0.101776 11.5482 0.625632 10.5 1.5717C9.45276 0.620999 8.11589 0.0932556 6.73019 0.0835114C5.34446 0.0737672 4.00098 0.582664 2.94164 1.51856C1.8823 2.45445 1.17673 3.75584 0.952013 5.18836C0.727287 6.62084 0.998169 8.09035 1.71587 9.3322H0.875C0.758966 9.3322 0.647688 9.38051 0.565639 9.46645C0.483595 9.55238 0.4375 9.66898 0.4375 9.79053C0.4375 9.91208 0.483595 10.0287 0.565639 10.1146C0.647688 10.2006 0.758966 10.2489 0.875 10.2489H2.366C2.43687 10.3314 2.50381 10.4166 2.5795 10.4955L8.65287 16.858C8.89542 17.1122 9.18339 17.3138 9.50031 17.4514C9.81724 17.5889 10.157 17.6597 10.5 17.6597C10.843 17.6597 11.1828 17.5889 11.4997 17.4514C11.8166 17.3138 12.1046 17.1122 12.3471 16.858L18.4187 10.4955C18.4944 10.4166 18.5614 10.3314 18.6322 10.2489H20.125C20.241 10.2489 20.3523 10.2006 20.4344 10.1146C20.5164 10.0287 20.5625 9.91208 20.5625 9.79053C20.5625 9.66898 20.5164 9.55238 20.4344 9.46645C20.3523 9.38051 20.241 9.3322 20.125 9.3322ZM1.75 6.18483C1.75066 5.16063 2.04103 4.15968 2.58444 3.30828C3.12784 2.45688 3.8999 1.79331 4.80309 1.40135C5.70627 1.0094 6.70009 0.906641 7.65901 1.10607C8.61792 1.30549 9.49891 1.79815 10.1907 2.52183C10.2727 2.60776 10.384 2.65603 10.5 2.65603C10.616 2.65603 10.7273 2.60776 10.8093 2.52183C11.6978 1.59878 12.8874 1.06307 14.1382 1.02271C15.3888 0.982349 16.6077 1.44036 17.5487 2.30435C18.4898 3.16835 19.0831 4.37409 19.209 5.67832C19.3349 6.98256 18.984 8.2883 18.2271 9.3322H14C13.9125 9.33216 13.827 9.35961 13.7546 9.41103C13.6821 9.46241 13.626 9.53538 13.5936 9.62049L13.1687 10.7306L11.5728 5.52528C11.5442 5.43215 11.4879 5.35103 11.4122 5.29383C11.3365 5.23658 11.2452 5.20624 11.1519 5.2072C11.0585 5.20816 10.9679 5.24043 10.8933 5.29923C10.8186 5.35799 10.7639 5.44026 10.7371 5.53399L9.14769 11.0844L7.84875 7.34212C7.81848 7.25485 7.76357 7.17932 7.69138 7.12546C7.61919 7.07161 7.53309 7.042 7.4445 7.04053C7.35608 7.04021 7.26954 7.06744 7.19591 7.11877C7.12228 7.1701 7.06492 7.24326 7.03106 7.32883L6.26631 9.3322H2.77287C2.1083 8.43089 1.74849 7.32374 1.75 6.18483ZM11.7285 16.21C11.3975 16.5409 10.9575 16.7256 10.5 16.7256C10.0425 16.7256 9.60247 16.5409 9.2715 16.21L3.58137 10.2489H6.5625C6.65 10.2489 6.73549 10.2215 6.80794 10.1701C6.88039 10.1187 6.93647 10.0457 6.96894 9.96058L7.41825 8.7822L8.7745 12.6955C8.80504 12.7845 8.86112 12.8615 8.93506 12.9158C9.009 12.9701 9.0972 12.9991 9.1875 12.9989H9.20019C9.29211 12.9961 9.38088 12.963 9.45385 12.9043C9.52682 12.8456 9.58029 12.7644 9.60662 12.6721L11.1707 7.21012L12.7085 12.2225C12.7361 12.3122 12.7894 12.3908 12.8612 12.4477C12.933 12.5045 13.0197 12.5368 13.1097 12.5401C13.2005 12.5478 13.2912 12.5238 13.3675 12.4716C13.4439 12.4196 13.5015 12.3424 13.5314 12.2522L14.2962 10.2489H17.4186L11.7285 16.21Z" fill="#003B73"/>
</svg>
