<svg width="66" height="66" viewBox="0 0 66 66" fill="none" xmlns="http://www.w3.org/2000/svg">
<g clip-path="url(#clip0_560_910)">
<path d="M41.125 20.4545C39.4017 20.4525 37.7496 19.767 36.531 18.5485C35.3125 17.3299 34.627 15.6778 34.625 13.9545V3.25488L51.7814 20.4545H41.125Z" fill="#1F83BE"/>
<path d="M52.5 64.3296C50.5716 64.3296 48.6866 63.7578 47.0832 62.6864C45.4798 61.6151 44.2301 60.0923 43.4922 58.3108C42.7542 56.5292 42.5611 54.5688 42.9373 52.6775C43.3136 50.7861 44.2421 49.0489 45.6057 47.6853C46.9693 46.3217 48.7066 45.3931 50.5979 45.0169C52.4892 44.6407 54.4496 44.8338 56.2312 45.5718C58.0127 46.3097 59.5355 47.5594 60.6068 49.1628C61.6782 50.7662 62.25 52.6512 62.25 54.5796C62.247 57.1645 61.2188 59.6427 59.391 61.4705C57.5631 63.2984 55.0849 64.3266 52.5 64.3296Z" fill="#1F83BE"/>
<path d="M15.125 33.4546C15.125 33.0236 15.2962 32.6103 15.601 32.3055C15.9057 32.0008 16.319 31.8296 16.75 31.8296H26.5C26.931 31.8296 27.3443 32.0008 27.649 32.3055C27.9538 32.6103 28.125 33.0236 28.125 33.4546C28.125 33.8856 27.9538 34.2989 27.649 34.6036C27.3443 34.9084 26.931 35.0796 26.5 35.0796H16.75C16.319 35.0796 15.9057 34.9084 15.601 34.6036C15.2962 34.2989 15.125 33.8856 15.125 33.4546ZM36.25 38.3296H16.75C16.319 38.3296 15.9057 38.5008 15.601 38.8055C15.2962 39.1103 15.125 39.5236 15.125 39.9546C15.125 40.3856 15.2962 40.7989 15.601 41.1036C15.9057 41.4084 16.319 41.5796 16.75 41.5796H36.25C36.681 41.5796 37.0943 41.4084 37.3991 41.1036C37.7038 40.7989 37.875 40.3856 37.875 39.9546C37.875 39.5236 37.7038 39.1103 37.3991 38.8055C37.0943 38.5008 36.681 38.3296 36.25 38.3296ZM36.2018 44.8296H16.75C16.319 44.8296 15.9057 45.0008 15.601 45.3055C15.2962 45.6103 15.125 46.0236 15.125 46.4546C15.125 46.8856 15.2962 47.2989 15.601 47.6036C15.9057 47.9084 16.319 48.0796 16.75 48.0796H36.2018C36.6327 48.0796 37.0461 47.9084 37.3508 47.6036C37.6556 47.2989 37.8268 46.8856 37.8268 46.4546C37.8268 46.0236 37.6556 45.6103 37.3508 45.3055C37.0461 45.0008 36.6327 44.8296 36.2018 44.8296ZM63.8775 54.5796C63.8792 56.3772 63.4545 58.1496 62.6382 59.7512C61.8219 61.3528 60.6373 62.738 59.1817 63.7928C57.7261 64.8477 56.041 65.5422 54.2648 65.8194C52.4887 66.0965 50.6721 65.9484 48.9644 65.3871C48.0209 65.7615 47.0151 65.954 46 65.9546H10.25C8.09512 65.9546 6.02849 65.0986 4.50476 63.5748C2.98102 62.0511 2.125 59.9845 2.125 57.8296V9.07959C2.125 6.92471 2.98102 4.85808 4.50476 3.33435C6.02849 1.81061 8.09512 0.95459 10.25 0.95459L34.6428 0.95459L54.125 20.4546V43.3341C56.8307 43.723 59.3057 45.0739 61.0964 47.1393C62.887 49.2046 63.8735 51.8461 63.875 54.5796H63.8775ZM36.25 7.18545V13.9546C36.2513 15.2471 36.7654 16.4863 37.6793 17.4002C38.5933 18.3142 39.8325 18.8282 41.125 18.8296H47.8649L36.25 7.18545ZM44.5527 62.7046C43.0361 61.2231 41.9643 59.3467 41.4586 57.2877C40.9529 55.2287 41.0336 53.0692 41.6914 51.0537C42.3493 49.0382 43.5581 47.2469 45.181 45.8827C46.804 44.5184 48.7764 43.6356 50.875 43.3341V22.0796H41.125C38.9701 22.0796 36.9035 21.2236 35.3798 19.6998C33.856 18.1761 33 16.1095 33 13.9546V4.20459H10.25C8.95748 4.20593 7.71829 4.71998 6.80434 5.63393C5.89039 6.54788 5.37634 7.78707 5.375 9.07959V57.8296C5.37634 59.1221 5.89039 60.3613 6.80434 61.2752C7.71829 62.1892 8.95748 62.7032 10.25 62.7046H44.5527ZM60.6313 54.5796C60.6313 52.9726 60.1548 51.4017 59.262 50.0656C58.3693 48.7294 57.1003 47.688 55.6157 47.0731C54.131 46.4581 52.4973 46.2972 50.9212 46.6107C49.3451 46.9242 47.8974 47.698 46.7611 48.8343C45.6248 49.9706 44.851 51.4184 44.5375 52.9945C44.224 54.5706 44.3849 56.2042 44.9998 57.6889C45.6148 59.1735 46.6562 60.4425 47.9923 61.3353C49.3285 62.2281 50.8994 62.7046 52.5063 62.7046C54.6594 62.7006 56.723 61.843 58.2449 60.32C59.7667 58.797 60.6227 56.7327 60.625 54.5796H60.6313ZM56.593 49.9369C56.41 49.827 56.2072 49.7542 55.9961 49.7227C55.7851 49.6912 55.5698 49.7017 55.3628 49.7534C55.1557 49.8052 54.9609 49.8973 54.7895 50.0244C54.618 50.1515 54.4734 50.3112 54.3637 50.4942L51.4438 55.368L50.3012 54.4158C49.9692 54.149 49.5457 54.0232 49.1219 54.0655C48.6981 54.1078 48.3078 54.3148 48.0351 54.6419C47.7624 54.9691 47.629 55.3902 47.6636 55.8147C47.6983 56.2392 47.8982 56.6331 48.2204 56.9117L50.8204 59.0788C51.1117 59.3236 51.4797 59.4584 51.8602 59.4597C51.9512 59.4599 52.0421 59.4523 52.1318 59.4368C52.3628 59.3983 52.5826 59.3102 52.7763 59.1788C52.97 59.0473 53.133 58.8755 53.2541 58.6751L57.1541 52.1751C57.2648 51.9911 57.338 51.7871 57.3694 51.5747C57.4008 51.3623 57.3898 51.1458 57.337 50.9377C57.2843 50.7296 57.1908 50.534 57.062 50.3622C56.9332 50.1904 56.7716 50.0459 56.5866 49.9369H56.593Z" fill="#CCCCCC"/>
</g>
<defs>
<clipPath id="clip0_560_910">
<rect width="65" height="65" fill="white" transform="translate(0.5 0.95459)"/>
</clipPath>
</defs>
</svg>
