<svg width="72" height="67" viewBox="0 0 72 67" fill="none" xmlns="http://www.w3.org/2000/svg">
<g clip-path="url(#clip0_560_1059)">
<path d="M39.9117 2.25434C39.9117 1.01644 41.154 0 42.7083 0C44.2568 0 45.5048 1.00509 45.5048 2.25434V12.1065C45.5048 13.3444 44.2625 14.3608 42.7083 14.3608C41.1597 14.3608 39.9117 13.3557 39.9117 12.1065V2.25434ZM8.10962 31.8902C7.95361 31.8902 7.80916 31.2087 7.80916 30.3683C7.80916 29.5279 7.93628 28.8522 8.10962 28.8522H15.7366C15.8926 28.8522 16.037 29.5336 16.037 30.3683C16.037 31.2087 15.9099 31.8902 15.7366 31.8902H8.10962ZM20.2665 31.8902C20.1105 31.8902 19.9661 31.2087 19.9661 30.3683C19.9661 29.5279 20.0932 28.8522 20.2665 28.8522H27.8935C28.0495 28.8522 28.1939 29.5336 28.1939 30.3683C28.1939 31.2087 28.0668 31.8902 27.8935 31.8902H20.2665ZM32.4234 31.8902C32.2674 31.8902 32.123 31.2087 32.123 30.3683C32.123 29.5279 32.2443 28.8522 32.4234 28.8522H40.0504C40.2064 28.8522 40.3508 29.5279 40.3508 30.3627C39.5881 30.8283 38.8543 31.3394 38.1494 31.8902H32.4234ZM8.12695 40.6123C7.97095 40.6123 7.8265 39.9308 7.8265 39.0904C7.8265 38.25 7.95361 37.5686 8.12695 37.5686H15.7539C15.9099 37.5686 16.0544 38.25 16.0544 39.0904C16.0544 39.9308 15.9272 40.6123 15.7539 40.6123H8.12695ZM20.2839 40.6123C20.1278 40.6123 19.9834 39.9308 19.9834 39.0904C19.9834 38.25 20.1105 37.5686 20.2839 37.5686H27.9108C28.0668 37.5686 28.2113 38.25 28.2113 39.0904C28.2113 39.9308 28.0841 40.6123 27.9108 40.6123H20.2839ZM8.14429 49.3344C7.98828 49.3344 7.84383 48.6529 7.84383 47.8125C7.84383 46.9721 7.97095 46.2907 8.14429 46.2907H15.7712C15.9272 46.2907 16.0717 46.9721 16.0717 47.8125C16.0717 48.6529 15.9446 49.3344 15.7712 49.3344H8.14429ZM20.3012 49.3344C20.1452 49.3344 20.0007 48.6529 20.0007 47.8125C20.0007 46.9721 20.1278 46.2907 20.3012 46.2907H27.9281C28.0841 46.2907 28.2286 46.9721 28.2286 47.8125C28.2286 48.6529 28.1015 49.3344 27.9281 49.3344H20.3012ZM14.8063 2.25434C14.8063 1.01076 16.0544 0 17.6029 0C19.1514 0 20.3994 1.00509 20.3994 2.25434V12.1065C20.3994 13.3444 19.1514 14.3608 17.6029 14.3608C16.0544 14.3608 14.8063 13.3557 14.8063 12.1065V2.25434ZM3.57967 21.5384H56.8066V10.1985C56.8066 9.80668 56.6448 9.47165 56.3963 9.2218C56.1421 8.97195 55.7781 8.81863 55.4025 8.81863H50.3005C49.4454 8.81863 48.752 8.13722 48.752 7.29681C48.752 6.4564 49.4512 5.77498 50.3005 5.77498H55.4025C56.6505 5.77498 57.7715 6.26901 58.592 7.07535C59.4124 7.88169 59.9151 8.9833 59.9151 10.2098V28.2162C58.8982 27.8698 57.8524 27.5916 56.7777 27.3872V24.5763H56.8123H3.57967V53.9453C3.57967 54.3371 3.73568 54.6721 3.98991 54.9219C4.24414 55.1718 4.60815 55.3251 4.98372 55.3251H30.2798C30.5687 56.3813 30.9327 57.4091 31.366 58.4028H5.01261C3.77034 58.4028 2.64364 57.9088 1.82316 57.1025C1.00269 56.3018 0.5 55.2002 0.5 53.9736V10.2098C0.5 8.98898 1.00269 7.88169 1.82316 7.07535C2.64364 6.26901 3.76457 5.77498 5.01261 5.77498H10.4613C11.3164 5.77498 12.0098 6.4564 12.0098 7.29681C12.0098 8.13722 11.3164 8.81863 10.4613 8.81863H5.01261C4.61393 8.81863 4.27303 8.97195 4.0188 9.2218C3.76457 9.47165 3.60856 9.82939 3.60856 10.1985V21.5384H3.57967ZM24.8658 8.81295C24.0107 8.81295 23.3173 8.13154 23.3173 7.29113C23.3173 6.45072 24.0107 5.7693 24.8658 5.7693H35.2546C36.1098 5.7693 36.8031 6.45072 36.8031 7.29113C36.8031 8.13154 36.1098 8.81295 35.2546 8.81295H24.8658Z" fill="#CCCCCC"/>
<path fill-rule="evenodd" clip-rule="evenodd" d="M53.4496 31.5322C55.8879 31.5322 58.2222 32.0092 60.3485 32.878C62.5673 33.7752 64.5491 35.0926 66.2132 36.728C67.8715 38.3577 69.212 40.3168 70.1307 42.486C71.0147 44.5813 71.5 46.8697 71.5 49.266C71.5 51.6623 71.0147 53.9564 70.1307 56.0461C69.212 58.2209 67.8772 60.1743 66.2132 61.8097C64.5491 63.4394 62.5615 64.7568 60.3543 65.6597C58.2222 66.5285 55.8937 67.0055 53.4554 67.0055C51.0171 67.0055 48.6827 66.5285 46.5564 65.6597C44.3435 64.7568 42.3558 63.4451 40.6918 61.8097C39.0277 60.18 37.693 58.2209 36.7743 56.0461C35.8903 53.9507 35.4049 51.6623 35.4049 49.266C35.4049 46.8697 35.8903 44.5813 36.7743 42.486C37.693 40.3111 39.0277 38.3577 40.6918 36.7223C42.3501 35.0926 44.3435 33.7752 46.5507 32.8723C48.6827 32.0092 51.0055 31.5322 53.4496 31.5322ZM51.566 42.3781C51.566 42.0998 51.6237 41.8329 51.7277 41.5831C51.8375 41.3276 51.9935 41.1004 52.1842 40.9073C52.3749 40.7143 52.6118 40.561 52.8718 40.4587C53.126 40.3565 53.3976 40.2998 53.6807 40.2998C53.9638 40.2998 54.2354 40.3565 54.4896 40.4587C54.7554 40.5666 54.9865 40.72 55.1772 40.9073C55.3679 41.0947 55.5297 41.3276 55.6337 41.5831C55.7377 41.8273 55.7955 42.0998 55.7955 42.3781V49.8395L60.5796 52.3267C60.6201 52.3494 60.6605 52.3778 60.701 52.4005C60.9205 52.5425 61.0996 52.7185 61.2441 52.9116C61.4001 53.1217 61.5099 53.3602 61.5734 53.61C61.637 53.8656 61.6543 54.1381 61.6197 54.405C61.585 54.6662 61.4983 54.9218 61.3597 55.1546L61.3077 55.2397L61.2672 55.2909C61.1228 55.4953 60.9494 55.6713 60.7587 55.8019C60.545 55.9552 60.3023 56.0631 60.0538 56.1256C59.7938 56.188 59.5165 56.2051 59.2449 56.171C58.9791 56.1369 58.7191 56.0518 58.4822 55.9155L52.6811 52.8662C52.5135 52.781 52.3633 52.6731 52.2362 52.5482C52.1033 52.4232 51.982 52.2813 51.8837 52.1223L51.8722 52.0996C51.774 51.9406 51.6989 51.7759 51.6468 51.5999C51.5948 51.4182 51.566 51.2308 51.566 51.0377V42.3781Z" fill="#1F83BE"/>
</g>
<defs>
<clipPath id="clip0_560_1059">
<rect width="71" height="67" fill="white" transform="translate(0.5)"/>
</clipPath>
</defs>
</svg>
