<svg width="66" height="65" viewBox="0 0 66 65" fill="none" xmlns="http://www.w3.org/2000/svg">
<path d="M30.1257 30.6653L25.739 35.0521L24.24 33.553C23.9873 33.3004 23.6447 33.1585 23.2874 33.1585C22.9301 33.1585 22.5875 33.3004 22.3349 33.553C22.0822 33.8057 21.9403 34.1483 21.9403 34.5056C21.9403 34.8628 22.0822 35.2055 22.3349 35.4581L24.7865 37.9096C24.9116 38.0346 25.0601 38.1339 25.2235 38.2015C25.387 38.2692 25.5621 38.3041 25.739 38.3041C25.9159 38.3041 26.0911 38.2692 26.2545 38.2015C26.4179 38.1339 26.5664 38.0346 26.6915 37.9096L32.0308 32.5703C32.2827 32.3175 32.4241 31.9751 32.4238 31.6182C32.4235 31.2613 32.2816 30.9191 32.0292 30.6667C31.7768 30.4144 31.4346 30.2725 31.0777 30.2722C30.7208 30.272 30.3784 30.4133 30.1257 30.6653Z" fill="#0074B7"/>
<path d="M50.1876 25.2305C51.5384 25.2305 52.6335 24.1355 52.6335 22.7847C52.6335 21.4339 51.5384 20.3389 50.1876 20.3389C48.8369 20.3389 47.7418 21.4339 47.7418 22.7847C47.7418 24.1355 48.8369 25.2305 50.1876 25.2305Z" fill="#0074B7"/>
<path d="M38.6852 25.2305C40.036 25.2305 41.131 24.1355 41.131 22.7847C41.131 21.4339 40.036 20.3389 38.6852 20.3389C37.3344 20.3389 36.2394 21.4339 36.2394 22.7847C36.2394 24.1355 37.3344 25.2305 38.6852 25.2305Z" fill="#0074B7"/>
<path d="M27.183 25.2306C28.5338 25.2306 29.6289 24.1355 29.6289 22.7847C29.6289 21.4339 28.5338 20.3389 27.183 20.3389C25.8322 20.3389 24.7372 21.4339 24.7372 22.7847C24.7372 24.1355 25.8322 25.2306 27.183 25.2306Z" fill="#0074B7"/>
<path d="M15.6807 25.2306C17.0315 25.2306 18.1266 24.1355 18.1266 22.7847C18.1266 21.4339 17.0315 20.3389 15.6807 20.3389C14.3299 20.3389 13.2349 21.4339 13.2349 22.7847C13.2349 24.1355 14.3299 25.2306 15.6807 25.2306Z" fill="#0074B7"/>
<path d="M50.1876 36.7329C51.5384 36.7329 52.6335 35.6379 52.6335 34.2871C52.6335 32.9363 51.5384 31.8413 50.1876 31.8413C48.8369 31.8413 47.7418 32.9363 47.7418 34.2871C47.7418 35.6379 48.8369 36.7329 50.1876 36.7329Z" fill="#0074B7"/>
<path d="M38.6852 36.733C40.036 36.733 41.131 35.6379 41.131 34.2871C41.131 32.9363 40.036 31.8413 38.6852 31.8413C37.3344 31.8413 36.2394 32.9363 36.2394 34.2871C36.2394 35.6379 37.3344 36.733 38.6852 36.733Z" fill="#0074B7"/>
<path d="M15.6807 36.7328C17.0315 36.7328 18.1266 35.6377 18.1266 34.2869C18.1266 32.9361 17.0315 31.8411 15.6807 31.8411C14.3299 31.8411 13.2349 32.9361 13.2349 34.2869C13.2349 35.6377 14.3299 36.7328 15.6807 36.7328Z" fill="#0074B7"/>
<path d="M50.1876 48.2351C51.5384 48.2351 52.6334 47.1401 52.6334 45.7893C52.6334 44.4385 51.5384 43.3435 50.1876 43.3435C48.8368 43.3435 47.7418 44.4385 47.7418 45.7893C47.7418 47.1401 48.8368 48.2351 50.1876 48.2351Z" fill="#0074B7"/>
<path d="M38.6852 48.2349C40.036 48.2349 41.131 47.1399 41.131 45.7891C41.131 44.4383 40.036 43.3433 38.6852 43.3433C37.3344 43.3433 36.2394 44.4383 36.2394 45.7891C36.2394 47.1399 37.3344 48.2349 38.6852 48.2349Z" fill="#0074B7"/>
<path d="M27.183 48.235C28.5338 48.235 29.6289 47.1399 29.6289 45.7891C29.6289 44.4383 28.5338 43.3433 27.183 43.3433C25.8322 43.3433 24.7372 44.4383 24.7372 45.7891C24.7372 47.1399 25.8322 48.235 27.183 48.235Z" fill="#0074B7"/>
<path d="M15.6807 48.235C17.0315 48.235 18.1266 47.1399 18.1266 45.7891C18.1266 44.4383 17.0315 43.3433 15.6807 43.3433C14.3299 43.3433 13.2349 44.4383 13.2349 45.7891C13.2349 47.1399 14.3299 48.235 15.6807 48.235Z" fill="#0074B7"/>
<path d="M58.7364 7.26893H49.8294V6.2401C49.8294 5.53558 49.5495 4.85991 49.0513 4.36174C48.5532 3.86357 47.8775 3.5837 47.173 3.5837C46.4684 3.5837 45.7928 3.86357 45.2946 4.36174C44.7964 4.85991 44.5166 5.53558 44.5166 6.2401V7.26893H35.6401V6.2401C35.6395 5.53872 35.3618 4.86598 34.8676 4.36835C34.3733 3.87071 33.7025 3.58849 33.0011 3.58312L33 3.58307L32.9989 3.58301C32.2976 3.58837 31.6267 3.87071 31.1325 4.36835C30.6382 4.86599 30.3606 5.53874 30.36 6.24012V7.26895H21.4835V6.24012C21.4835 5.89128 21.4148 5.54585 21.2813 5.22356C21.1478 4.90127 20.9521 4.60843 20.7055 4.36176C20.4588 4.11509 20.1659 3.91942 19.8437 3.78593C19.5214 3.65243 19.1759 3.58372 18.8271 3.58372C18.4782 3.58372 18.1328 3.65243 17.8105 3.78593C17.4882 3.91942 17.1954 4.11509 16.9487 4.36176C16.7021 4.60843 16.5064 4.90127 16.3729 5.22356C16.2394 5.54585 16.1707 5.89128 16.1707 6.24012V7.26895H7.26366C5.6522 7.27087 4.1073 7.91187 2.96783 9.05133C1.82836 10.1908 1.18735 11.7357 1.18542 13.3471V55.3388C1.18735 56.9502 1.82835 58.4951 2.96782 59.6346C4.10729 60.7741 5.65219 61.4151 7.26364 61.417H58.7364C60.3478 61.4151 61.8927 60.7741 63.0322 59.6346C64.1717 58.4951 64.8127 56.9502 64.8146 55.3388V13.3471C64.8127 11.7357 64.1717 10.1908 63.0322 9.05132C61.8928 7.91185 60.3479 7.27085 58.7364 7.26893ZM59.5018 55.3388C59.5016 55.5417 59.4208 55.7362 59.2774 55.8797C59.1339 56.0232 58.9393 56.1039 58.7364 56.1042H7.26365C7.06072 56.1039 6.86618 56.0232 6.72269 55.8797C6.5792 55.7362 6.49847 55.5417 6.49823 55.3388V13.3471C6.49847 13.1442 6.57919 12.9497 6.72268 12.8062C6.86618 12.6627 7.06072 12.582 7.26365 12.5817H16.1707V13.612C16.1707 14.3165 16.4505 14.9922 16.9487 15.4903C17.4469 15.9885 18.1226 16.2684 18.8271 16.2684C19.5316 16.2684 20.2073 15.9885 20.7054 15.4903C21.2036 14.9922 21.4835 14.3165 21.4835 13.612V12.5817H30.36V13.612C30.3608 14.3133 30.6385 14.9859 31.1327 15.4835C31.6269 15.9811 32.2976 16.2634 32.9989 16.269L33 16.2691L33.0011 16.2691C33.7024 16.2635 34.3731 15.9811 34.8673 15.4835C35.3615 14.9859 35.6392 14.3133 35.64 13.612V12.5817H44.5165V13.612C44.5165 14.3165 44.7964 14.9922 45.2946 15.4903C45.7928 15.9885 46.4684 16.2684 47.1729 16.2684C47.8775 16.2684 48.5531 15.9885 49.0513 15.4903C49.5495 14.9922 49.8294 14.3165 49.8294 13.612V12.5817H58.7364C58.9393 12.582 59.1339 12.6627 59.2773 12.8062C59.4208 12.9497 59.5016 13.1442 59.5018 13.3471L59.5018 55.3388Z" fill="#CCCCCC"/>
</svg>
