<svg width="56" height="58" viewBox="0 0 56 58" fill="none" xmlns="http://www.w3.org/2000/svg">
<path fill-rule="evenodd" clip-rule="evenodd" d="M21.4141 54.5803H12.4723C12.0574 54.5803 11.7094 54.2322 11.7094 53.8039C11.7094 53.3889 12.0574 53.0409 12.4723 53.0409H21.4141C21.8424 53.0409 22.1905 53.3889 22.1905 53.8039C22.1905 54.2322 21.8424 54.5803 21.4141 54.5803Z" fill="#043659"/>
<path fill-rule="evenodd" clip-rule="evenodd" d="M19.085 58.0071H14.815C14.3866 58.0071 14.0386 57.6591 14.0386 57.2308C14.0386 56.8158 14.3866 56.4678 14.815 56.4678H19.085C19.5 56.4678 19.848 56.8158 19.848 57.2308C19.848 57.6591 19.5 58.0071 19.085 58.0071Z" fill="#043659"/>
<path fill-rule="evenodd" clip-rule="evenodd" d="M23.0874 50.926H10.8125C10.3842 50.926 10.0362 50.5779 10.0362 50.1496C10.0362 37.9685 7.19838 35.7197 4.69523 33.7252C2.59365 32.0653 0.612549 30.4858 0.612549 24.422C0.612549 15.4134 7.9346 8.09131 16.9433 8.09131C20.6779 8.09131 24.3322 9.38973 27.2236 11.7323C27.3976 11.8795 27.5047 12.1071 27.5047 12.3346V20.9283H29.0708C29.2716 20.9283 29.4724 21.0086 29.6063 21.1559C29.7535 21.3031 29.8338 21.5039 29.8338 21.7047L29.8204 26.5905L32.0023 24.8637C32.2433 24.6763 32.5645 24.6496 32.8322 24.7834C33.1 24.9307 33.2606 25.2118 33.2472 25.5063C33.033 30.6866 31.159 32.159 29.1913 33.7252C26.6881 35.7197 23.8503 37.9685 23.8503 50.1496C23.8503 50.5779 23.5157 50.926 23.0874 50.926ZM11.5755 49.3732H22.311C22.4448 37.1252 25.5102 34.6756 28.2275 32.5204C29.7937 31.2756 31.0787 30.2582 31.5472 27.1929L29.5126 28.7858C29.285 28.9732 28.9637 29.0134 28.7094 28.8795C28.4417 28.7456 28.2677 28.4779 28.2677 28.1834L28.2944 22.4811H26.7417C26.3133 22.4811 25.9653 22.133 25.9653 21.7047V12.7094C23.3952 10.7283 20.2094 9.64406 16.9433 9.64406C8.79129 9.64406 2.1653 16.27 2.1653 24.422C2.1653 29.7496 3.70467 30.9677 5.65901 32.5204C8.37633 34.6756 11.4551 37.1252 11.5755 49.3732Z" fill="#043659"/>
<path fill-rule="evenodd" clip-rule="evenodd" d="M11.589 35.9472C11.3212 35.9472 11.0535 35.8 10.9197 35.5457C10.2236 34.2606 9.34014 33.1496 8.21573 32.1323C7.85431 31.7976 7.46612 31.4898 7.05116 31.1685C6.70313 30.8874 6.34171 30.5929 5.9803 30.285C4.0929 28.6252 4.0929 26.2961 4.0929 24.422C4.0929 17.3409 9.86219 11.5717 16.9433 11.5717C19.326 11.5717 21.6417 12.2276 23.663 13.4724C24.0244 13.6866 24.1449 14.1685 23.9173 14.5299C23.6897 14.8913 23.2212 14.9984 22.8598 14.7843C21.0795 13.6866 19.0449 13.111 16.9433 13.111C10.7055 13.111 5.63227 18.1843 5.63227 24.422C5.63227 26.4835 5.73935 28.0228 6.99762 29.1339C7.33227 29.415 7.66691 29.6827 8.01494 29.9638C8.4299 30.285 8.84486 30.6197 9.25982 30.9945C10.5047 32.1189 11.4819 33.3638 12.2716 34.7961C12.4724 35.1709 12.3386 35.6394 11.9638 35.8402C11.8433 35.9071 11.7228 35.9472 11.589 35.9472Z" fill="#043659"/>
<path fill-rule="evenodd" clip-rule="evenodd" d="M29.0441 28.9598C28.9236 28.9598 28.8165 28.933 28.7094 28.8795C28.4417 28.7456 28.2677 28.4779 28.2677 28.1834L28.2945 22.4811H26.7417C26.3134 22.4811 25.9653 22.133 25.9653 21.7047V2.67005C25.9653 2.24171 26.3134 1.89368 26.7417 1.89368H54.611C55.0393 1.89368 55.3874 2.24171 55.3874 2.67005V21.7047C55.3874 22.133 55.0393 22.4811 54.611 22.4811H37.5307L29.5126 28.7858C29.3787 28.9063 29.2047 28.9598 29.0441 28.9598ZM27.5047 20.9283H29.0708C29.2716 20.9283 29.4724 21.022 29.6063 21.1559C29.7535 21.3031 29.8338 21.5039 29.8338 21.7047L29.8205 26.5905L36.7945 21.1023C36.9283 20.9953 37.089 20.9283 37.263 20.9283H53.8346V3.43305H27.5047V20.9283Z" fill="#249ECF"/>
<path fill-rule="evenodd" clip-rule="evenodd" d="M47.9984 8.43939H33.3543C32.9259 8.43939 32.5779 8.09136 32.5779 7.66302C32.5779 7.24806 32.9259 6.90002 33.3543 6.90002H47.9984C48.4267 6.90002 48.7747 7.24806 48.7747 7.66302C48.7747 8.09136 48.4267 8.43939 47.9984 8.43939Z" fill="#249ECF"/>
<path fill-rule="evenodd" clip-rule="evenodd" d="M50.5551 12.6425H30.7976C30.3693 12.6425 30.0212 12.2945 30.0212 11.8661C30.0212 11.4378 30.3693 11.1031 30.7976 11.1031H50.5551C50.9834 11.1031 51.3181 11.4378 51.3181 11.8661C51.3181 12.2945 50.9834 12.6425 50.5551 12.6425Z" fill="#249ECF"/>
<path fill-rule="evenodd" clip-rule="evenodd" d="M50.5551 16.8457H30.7976C30.3693 16.8457 30.0212 16.4977 30.0212 16.0693C30.0212 15.641 30.3693 15.293 30.7976 15.293H50.5551C50.9834 15.293 51.3181 15.641 51.3181 16.0693C51.3181 16.4977 50.9834 16.8457 50.5551 16.8457Z" fill="#249ECF"/>
<path fill-rule="evenodd" clip-rule="evenodd" d="M16.9299 5.37402C16.5015 5.37402 16.1669 5.02599 16.1669 4.61103V0.769298C16.1669 0.340951 16.5015 -0.00708008 16.9299 -0.00708008C17.3582 -0.00708008 17.7062 0.340951 17.7062 0.769298V4.59764C17.7062 5.02599 17.3582 5.37402 16.9299 5.37402Z" fill="#249ECF"/>
<path fill-rule="evenodd" clip-rule="evenodd" d="M10.4913 6.23068C10.1432 6.23068 9.83535 6.00312 9.74164 5.65509L8.75109 1.94721C8.64401 1.53225 8.88495 1.10391 9.29991 0.996821C9.70149 0.889735 10.1298 1.13068 10.2369 1.54564L11.2275 5.25351C11.3479 5.66847 11.0936 6.08344 10.692 6.20391C10.6251 6.21729 10.5582 6.23068 10.4913 6.23068Z" fill="#249ECF"/>
<path fill-rule="evenodd" clip-rule="evenodd" d="M4.48106 8.70714C4.21334 8.70714 3.95901 8.57328 3.81176 8.33234L1.89759 4.99926C1.68342 4.63785 1.80389 4.15596 2.17869 3.94178C2.54011 3.72761 3.022 3.86147 3.23617 4.22289L5.15035 7.55596C5.36452 7.91738 5.24405 8.39927 4.86925 8.61344C4.74877 8.68037 4.61491 8.70714 4.48106 8.70714Z" fill="#249ECF"/>
</svg>
