<svg width="10" height="12" viewBox="0 0 10 12" fill="none" xmlns="http://www.w3.org/2000/svg">
<path d="M8.98095 3.97249C8.45595 1.46999 6.44095 0.343323 4.67095 0.343323C4.67095 0.343323 4.67095 0.343323 4.66595 0.343323C2.90095 0.343323 0.880946 1.46457 0.355946 3.96707C-0.229054 6.76207 1.35095 9.12916 2.78095 10.6187C3.31095 11.1712 3.99095 11.4475 4.67095 11.4475C5.35095 11.4475 6.03095 11.1712 6.55595 10.6187C7.98595 9.12916 9.56595 6.76749 8.98095 3.97249ZM4.67095 6.68624C3.80095 6.68624 3.09595 5.92249 3.09595 4.97999C3.09595 4.03749 3.80095 3.27374 4.67095 3.27374C5.54095 3.27374 6.24595 4.03749 6.24595 4.97999C6.24595 5.92249 5.54095 6.68624 4.67095 6.68624Z" fill="#003B73"/>
</svg>
