<svg width="33" height="41" viewBox="0 0 33 41" fill="none" xmlns="http://www.w3.org/2000/svg">
<path d="M29.3887 26.8324C29.4563 26.7275 29.4783 26.6011 29.4498 26.4806C29.4214 26.3602 29.3449 26.2554 29.2369 26.1892C29.1289 26.123 28.9982 26.1008 28.8733 26.1272C28.7484 26.1537 28.6393 26.2268 28.5699 26.3306C28.0946 27.0536 27.223 27.4556 26.1878 27.6343C24.8666 27.8622 23.2965 27.727 21.8998 27.4215L20.0471 25.5394L20.048 25.5386C20.0041 25.494 19.9515 25.4581 19.8933 25.4331C19.835 25.4082 19.7723 25.3945 19.7086 25.393C19.6448 25.3914 19.5815 25.402 19.522 25.4241C19.4625 25.4463 19.4081 25.4795 19.362 25.5219C19.3478 25.535 19.3345 25.5488 19.322 25.5633L17.4927 27.4215C16.1165 27.7224 14.5732 27.8585 13.2654 27.6456C12.235 27.4777 11.3606 27.093 10.867 26.3971C10.7939 26.2961 10.6826 26.227 10.5572 26.2048C10.4317 26.1826 10.3023 26.2092 10.197 26.2786C10.0916 26.3481 10.0189 26.4549 9.99461 26.5758C9.97029 26.6967 9.99633 26.8221 10.0671 26.9246C10.7283 27.8567 11.8301 28.3608 13.1062 28.5685C14.5886 28.81 16.3187 28.6505 17.8305 28.3071C17.9313 28.2893 18.0236 28.241 18.0941 28.1692L18.0932 28.1683L19.696 26.5402L21.2756 28.1448C21.3428 28.2236 21.4349 28.2789 21.5377 28.3022H21.5395C23.0819 28.6548 24.8535 28.817 26.358 28.5574C27.6452 28.3354 28.7481 27.806 29.3882 26.8325L29.3887 26.8324Z" fill="#0173B5"/>
<path d="M10.2305 24.0497C10.1084 24.0811 10.0039 24.1573 9.93907 24.2621C9.87427 24.3669 9.85431 24.4919 9.88344 24.6107C9.91257 24.7294 9.98849 24.8325 10.0951 24.8981C10.2016 24.9636 10.3305 24.9864 10.4542 24.9616C11.0283 24.8293 12.1767 24.59 13.7461 24.3873C17.6905 23.8905 21.6849 23.8898 25.6295 24.3852C27.197 24.5869 28.3468 24.8256 28.9262 24.9589C28.9889 24.975 29.0543 24.9789 29.1185 24.9702C29.1828 24.9615 29.2445 24.9405 29.3002 24.9083C29.3559 24.8762 29.4044 24.8336 29.4427 24.783C29.481 24.7325 29.5085 24.675 29.5235 24.614C29.5384 24.553 29.5406 24.4898 29.5298 24.428C29.519 24.3662 29.4955 24.3071 29.4607 24.2542C29.4258 24.2014 29.3804 24.1558 29.327 24.1202C29.2736 24.0846 29.2134 24.0597 29.1499 24.0469C28.5627 23.912 27.3909 23.6692 25.7547 23.4588C21.727 22.9535 17.6485 22.9542 13.621 23.4609C11.982 23.6725 10.8116 23.9159 10.2306 24.0497L10.2305 24.0497Z" fill="#0173B5"/>
<path d="M19.963 15.4644C22.338 15.4644 24.2572 16.0826 25.7394 17.1181C27.0327 18.0214 27.986 19.2373 28.6146 20.634C29.2379 22.019 29.5422 23.579 29.5422 25.1841C29.5263 28.1518 28.558 31.0417 26.7709 33.4555C24.2777 36.7876 21.9298 38.3542 19.5779 38.2605C17.2318 38.1667 14.9664 36.4209 12.6268 33.1273C10.7909 30.5438 9.85034 27.6169 9.85034 24.9048C9.85034 23.3329 10.1657 21.8302 10.8054 20.5033C11.4494 19.147 12.4616 17.9845 13.7345 17.1393C15.32 16.0878 17.3922 15.4644 19.9635 15.4644L19.963 15.4644ZM25.1745 17.8764C23.8528 16.9533 22.1234 16.4021 19.963 16.4021C17.5982 16.4021 15.7092 16.9641 14.28 17.9122C13.1516 18.6631 12.2547 19.6952 11.6846 20.899C11.1059 22.0992 10.8208 23.4672 10.8208 24.9048C10.8208 27.4362 11.704 30.1751 13.4271 32.6006C15.5854 35.6388 17.6061 37.2469 19.6161 37.327C21.6203 37.407 23.6995 35.967 25.9866 32.9103C27.6548 30.6552 28.558 27.9558 28.5718 25.1841C28.5718 23.7003 28.2949 22.268 27.7277 21.0075C27.1657 19.7587 26.3189 18.6754 25.1746 17.8763L25.1745 17.8764Z" fill="#0173B5"/>
<path d="M22.2916 1.97909C22.2197 1.87726 22.1091 1.80699 21.9838 1.78359C21.8585 1.76018 21.7288 1.78554 21.6228 1.85414C21.5168 1.92274 21.4431 2.02902 21.4179 2.14984C21.3926 2.27065 21.4178 2.39622 21.4879 2.4992C22.4054 3.81959 23.0691 5.15779 23.4481 6.45591C23.9053 8.02132 23.9467 9.52524 23.518 10.8624C23.0933 12.1869 22.2006 13.359 20.7857 14.2767C19.9076 14.8463 18.8268 15.3196 17.5306 15.6729C17.4686 15.6888 17.4105 15.7164 17.3596 15.7542C17.3088 15.7921 17.2662 15.8392 17.2344 15.8931C17.2026 15.9469 17.1821 16.0063 17.1743 16.0678C17.1664 16.1293 17.1713 16.1917 17.1886 16.2514C17.206 16.3111 17.2354 16.3669 17.2752 16.4155C17.315 16.4641 17.3644 16.5046 17.4206 16.5346C17.4767 16.5645 17.5385 16.5835 17.6023 16.5902C17.6661 16.597 17.7306 16.5914 17.7921 16.5739C19.188 16.1934 20.3611 15.6777 21.324 15.0531C22.9338 14.0089 23.9533 12.6639 24.443 11.137C24.9283 9.62258 24.8878 7.93952 24.3808 6.20356C23.9745 4.81183 23.2671 3.38308 22.2917 1.9794L22.2916 1.97909Z" fill="#0173B5"/>
<path d="M9.99316 24.173C10.0721 24.267 10.1856 24.328 10.31 24.343C10.4344 24.358 10.5599 24.3259 10.6604 24.2535C10.7608 24.181 10.8283 24.0739 10.8488 23.9544C10.8693 23.835 10.8411 23.7125 10.7702 23.6126C10.7606 23.6002 7.36634 19.2806 8.99822 14.915C9.23479 14.2911 9.58047 13.7111 10.0202 13.2002C10.5187 12.6255 11.0979 12.1209 11.7411 11.7012C12.5365 11.1715 14.0431 10.7142 15.6886 10.2149C19.7604 8.97919 24.6224 7.50379 23.3118 3.64857C23.2708 3.53214 23.184 3.43599 23.0702 3.38092C22.9563 3.32584 22.8247 3.31626 22.7036 3.35425C22.5825 3.39224 22.4818 3.47475 22.4232 3.58392C22.3647 3.6931 22.3529 3.82017 22.3906 3.93765C23.3959 6.89446 19.0446 8.21508 15.4005 9.32077C13.6835 9.84182 12.1116 10.319 11.1915 10.9316C10.4744 11.4006 9.82873 11.9644 9.27342 12.6064C8.76316 13.2003 8.36229 13.8745 8.08827 14.5995C6.27678 19.4446 9.98257 24.1589 9.99308 24.1725L9.99316 24.173Z" fill="#0173B5"/>
<path d="M28.5845 23.8148C28.5202 23.9221 28.5026 24.0497 28.5357 24.1696C28.5687 24.2894 28.6497 24.3917 28.7608 24.4538C28.8718 24.516 29.0039 24.533 29.128 24.501C29.252 24.4691 29.3578 24.3909 29.4222 24.2836C33.7367 17.0693 32.443 10.9433 29.052 6.77333C26.8426 4.0563 23.7335 2.17619 20.7051 1.37247C17.6202 0.553671 14.6005 0.849001 12.6458 2.50183C10.721 4.12919 9.85096 7.03397 10.996 11.4301C11.0111 11.4901 11.0383 11.5466 11.0761 11.5963C11.1139 11.6461 11.1615 11.6882 11.2162 11.7201C11.2708 11.752 11.3315 11.7732 11.3947 11.7824C11.4579 11.7916 11.5223 11.7886 11.5843 11.7736C11.6463 11.7587 11.7046 11.732 11.7559 11.6952C11.8071 11.6583 11.8504 11.6121 11.883 11.559C11.9157 11.506 11.9373 11.4473 11.9463 11.3862C11.9554 11.3251 11.9519 11.2628 11.936 11.203C10.8928 7.20015 11.6217 4.60891 13.2824 3.20492C14.9775 1.77171 17.6672 1.53459 20.4508 2.27338C23.2909 3.0271 26.2104 4.7947 28.2898 7.3518C31.4612 11.2517 32.6572 17.0041 28.5842 23.8146L28.5845 23.8148Z" fill="#0173B5"/>
<path d="M27.2075 19.0249C27.0898 19.0745 26.9974 19.1671 26.9505 19.2825C26.9036 19.3979 26.906 19.5265 26.9573 19.6401C27.0086 19.7538 27.1045 19.8431 27.2239 19.8884C27.3433 19.9337 27.4765 19.9314 27.5941 19.8818C27.6029 19.8782 30.6657 18.6536 31.3728 10.9694C31.3783 10.9084 31.3713 10.8468 31.3522 10.7884C31.333 10.7299 31.3022 10.6757 31.2613 10.6288C31.2205 10.5818 31.1705 10.5431 31.1142 10.5149C31.0579 10.4866 30.9964 10.4693 30.9332 10.464C30.8699 10.4587 30.8063 10.4655 30.7457 10.484C30.6852 10.5025 30.6291 10.5323 30.5805 10.5717C30.5319 10.6112 30.4919 10.6595 30.4626 10.7139C30.4334 10.7683 30.4155 10.8277 30.41 10.8888C29.7544 18.0127 27.2148 19.0221 27.2075 19.025L27.2075 19.0249Z" fill="#0173B5"/>
<path d="M17.3106 33.0336C17.2483 32.9253 17.1439 32.8453 17.0206 32.8113C16.8972 32.7773 16.765 32.7921 16.6529 32.8523C16.5408 32.9125 16.458 33.0133 16.4229 33.1325C16.3877 33.2516 16.4029 33.3794 16.4653 33.4877C16.4733 33.5015 19.2248 38.3722 22.1403 33.4932C22.1719 33.4401 22.1924 33.3814 22.2006 33.3206C22.2087 33.2599 22.2044 33.1981 22.1879 33.139C22.1713 33.0798 22.1429 33.0243 22.1042 32.9758C22.0654 32.9272 22.0172 32.8865 21.9622 32.856C21.9072 32.8255 21.8465 32.8057 21.7836 32.7978C21.7207 32.7899 21.6568 32.7941 21.5955 32.8101C21.5343 32.8261 21.4769 32.8535 21.4267 32.8909C21.3764 32.9283 21.3343 32.9749 21.3027 33.0281C19.2491 36.4648 17.3158 33.0432 17.3106 33.0336Z" fill="#0173B5"/>
<path d="M1.30321 36.9026L3.0885 39.8133L10.327 35.4501L8.62519 32.4853L1.30321 36.9026ZM2.50736 40.7018L0.243 37.0097L0.233943 36.9962C0.200185 36.944 0.177407 36.8859 0.166908 36.8251C0.156409 36.7644 0.158396 36.7023 0.172754 36.6423C0.187113 36.5823 0.213562 36.5256 0.250592 36.4755C0.287621 36.4254 0.334505 36.3828 0.388567 36.3502H0.389699L8.5199 31.4453C8.57556 31.407 8.63895 31.3806 8.70592 31.3676C8.77289 31.3547 8.84193 31.3555 8.90854 31.3702C8.97514 31.3848 9.0378 31.4128 9.09242 31.4524C9.14703 31.492 9.19238 31.5423 9.22549 31.6L9.22404 31.6007L11.3775 35.3526L11.385 35.3639C11.4189 35.4161 11.4417 35.4743 11.4522 35.5351C11.4627 35.5959 11.4606 35.6581 11.4462 35.7182C11.4318 35.7782 11.4053 35.8349 11.3682 35.8851C11.331 35.9352 11.284 35.9777 11.2299 36.0103H11.2289L3.20487 40.8465C3.1942 40.8538 3.1832 40.8607 3.17171 40.8673C3.06104 40.9307 2.92883 40.949 2.80417 40.9182C2.67951 40.8875 2.57261 40.8101 2.50696 40.7032V40.7023L2.50736 40.7018Z" fill="#0173B5"/>
<path d="M9.06597 31.9071C8.93912 31.9203 8.82279 31.9813 8.74228 32.0769C8.66178 32.1725 8.62362 32.295 8.63612 32.4176C8.64861 32.5403 8.71075 32.6532 8.80901 32.7318C8.90727 32.8104 9.03368 32.8484 9.16075 32.8374L11.9381 32.5726L10.2647 34.7821C10.2271 34.8316 10.2 34.8878 10.1849 34.9475C10.1698 35.0072 10.167 35.0691 10.1767 35.1298C10.1864 35.1905 10.2084 35.2488 10.2414 35.3013C10.2744 35.3538 10.3177 35.3995 10.369 35.4358C10.4203 35.4721 10.4785 35.4983 10.5402 35.5129C10.602 35.5275 10.6661 35.5301 10.729 35.5208C10.7918 35.5114 10.8521 35.4902 10.9064 35.4583C10.9608 35.4264 11.0081 35.3845 11.0457 35.335L13.34 32.3051C13.4018 32.2337 13.4402 32.1462 13.4504 32.0536C13.4605 31.961 13.4418 31.8676 13.3968 31.7853C13.3518 31.7031 13.2824 31.6356 13.1975 31.5915C13.1127 31.5474 13.0161 31.5288 12.9202 31.5379V31.5393L9.06597 31.9071Z" fill="#0173B5"/>
<path d="M15.3195 31.333C15.3758 31.3044 15.4257 31.2654 15.4663 31.2182C15.5069 31.1709 15.5376 31.1164 15.5564 31.0578C15.5752 30.9991 15.5819 30.9374 15.5761 30.8763C15.5703 30.8151 15.552 30.7556 15.5224 30.7013C15.4928 30.6469 15.4524 30.5987 15.4035 30.5595C15.3546 30.5202 15.2982 30.4906 15.2375 30.4724C15.1149 30.4357 14.9821 30.4475 14.8685 30.5053L12.7423 31.5905C12.686 31.6191 12.6361 31.6581 12.5955 31.7054C12.5548 31.7526 12.5242 31.8071 12.5054 31.8658C12.4866 31.9244 12.4799 31.9861 12.4857 32.0473C12.4915 32.1084 12.5098 32.1679 12.5394 32.2222C12.569 32.2766 12.6094 32.3248 12.6583 32.364C12.7072 32.4033 12.7636 32.4329 12.8243 32.4511C12.885 32.4693 12.9489 32.4758 13.0122 32.4701C13.0755 32.4645 13.137 32.4469 13.1933 32.4183L15.3195 31.333Z" fill="#0173B5"/>
</svg>
