<svg width="11" height="12" viewBox="0 0 11 12" fill="none" xmlns="http://www.w3.org/2000/svg">
<path d="M8.90761 11.3849C8.45011 11.3849 7.80745 11.2056 6.84511 10.6232C5.67488 9.91224 4.76972 9.25589 3.60581 7.99829C2.48363 6.78335 1.93753 5.99675 1.17324 4.49007C0.309798 2.7889 0.456986 1.89718 0.621517 1.51607C0.817454 1.06056 1.10667 0.788119 1.4805 0.517709C1.69283 0.366999 1.91753 0.237807 2.15175 0.131771C2.17519 0.120853 2.19699 0.110443 2.21644 0.101049C2.33245 0.0444275 2.50824 -0.0411389 2.73089 0.0502673C2.87949 0.110697 3.01214 0.234349 3.2198 0.456517C3.64566 0.911517 4.22761 1.92486 4.4423 2.42251C4.58644 2.75792 4.68183 2.97933 4.68206 3.22765C4.68206 3.51837 4.54706 3.74257 4.38324 3.98454C4.35253 4.02999 4.32206 4.07341 4.29253 4.11556C4.11417 4.36947 4.07503 4.44285 4.10081 4.57386C4.15308 4.83716 4.54284 5.62097 5.18339 6.31337C5.82394 7.00577 6.52659 7.40136 6.77058 7.45773C6.89667 7.48693 6.96581 7.44275 7.20769 7.24267C7.24238 7.21398 7.278 7.18427 7.31527 7.15456C7.56511 6.95322 7.76245 6.81077 8.02449 6.81077H8.02589C8.25394 6.81077 8.44917 6.91792 8.77261 7.09464C9.19448 7.32519 10.158 7.94751 10.5806 8.40937C10.7861 8.63382 10.9007 8.77702 10.9567 8.93775C11.0411 9.17972 10.9617 9.36939 10.9099 9.49634C10.9012 9.51741 10.8916 9.54052 10.8815 9.56616C10.7829 9.81945 10.6629 10.0624 10.5232 10.2918C10.274 10.6955 10.0216 11.0081 9.60019 11.2206C9.38379 11.3315 9.14698 11.3877 8.90761 11.3849Z" fill="#003B73"/>
</svg>
