<svg width="106" height="113" viewBox="0 0 106 113" fill="none" xmlns="http://www.w3.org/2000/svg">
<path d="M88.7246 7.56697H87.8864V2.61397C87.8864 1.21697 86.7434 0.0739746 85.3464 0.0739746C83.9494 0.0739746 82.8064 1.21697 82.8064 2.61397V7.56697H74.9451V2.61397C74.9451 1.21697 73.8148 0.0739746 72.4051 0.0739746C71.0081 0.0739746 69.8651 1.21697 69.8651 2.61397V7.56697H62.0038V2.61397C62.0038 1.21697 60.8735 0.0739746 59.4638 0.0739746C58.0668 0.0739746 56.9238 1.21697 56.9238 2.61397V7.56697H49.0752V2.61397C49.0752 1.21697 47.9322 0.0739746 46.5352 0.0739746C45.1255 0.0739746 43.9952 1.21697 43.9952 2.61397V7.56697H36.1339V2.61397C36.1339 1.21697 34.9909 0.0739746 33.5939 0.0739746C32.1842 0.0739746 31.0539 1.21697 31.0539 2.61397V7.56697H23.1926V2.61397C23.1926 1.21697 22.0496 0.0739746 20.6526 0.0739746C19.2556 0.0739746 18.1126 1.21697 18.1126 2.61397V7.56697H17.2744C7.92719 7.56697 0.319885 15.1743 0.319885 24.5215V100.429C0.319885 101.839 1.45019 102.969 2.85989 102.969H25.9485C27.3455 102.969 28.4885 101.839 28.4885 100.429C28.4885 99.0324 27.3455 97.8894 25.9485 97.8894H5.39989V31.6081H100.599V97.8894H80.0505C78.6535 97.8894 77.5105 99.0324 77.5105 100.429C77.5105 101.839 78.6535 102.969 80.0505 102.969H103.139C104.549 102.969 105.679 101.839 105.679 100.429V24.5215C105.679 15.1743 98.0718 7.56697 88.7246 7.56697ZM100.599 26.5281H5.39989V24.5215C5.39989 17.981 10.7212 12.647 17.2744 12.647H18.1126V17.6C18.1126 19.0097 19.2556 20.14 20.6526 20.14C22.0496 20.14 23.1926 19.0097 23.1926 17.6V12.647H31.0539V17.6C31.0539 19.0097 32.1842 20.14 33.5939 20.14C34.9909 20.14 36.1339 19.0097 36.1339 17.6V12.647H43.9952V17.6C43.9952 19.0097 45.1255 20.14 46.5352 20.14C47.9322 20.14 49.0752 19.0097 49.0752 17.6V12.647H56.9238V17.6C56.9238 19.0097 58.0668 20.14 59.4638 20.14C60.8735 20.14 62.0038 19.0097 62.0038 17.6V12.647H69.8651V17.6C69.8651 19.0097 71.0081 20.14 72.4051 20.14C73.8148 20.14 74.9451 19.0097 74.9451 17.6V12.647H82.8064V17.6C82.8064 19.0097 83.9494 20.14 85.3464 20.14C86.7434 20.14 87.8864 19.0097 87.8864 17.6V12.647H88.7246C95.2778 12.647 100.599 17.981 100.599 24.5215V26.5281Z" fill="#CCCCCC"/>
<path d="M100.6 24.5215V26.5281H5.40045V24.5215C5.40045 17.981 10.7218 12.647 17.275 12.647H18.1132V17.6C18.1132 19.0097 19.2562 20.14 20.6532 20.14C22.0502 20.14 23.1932 19.0097 23.1932 17.6V12.647H31.0545V17.6C31.0545 19.0097 32.1848 20.14 33.5945 20.14C34.9915 20.14 36.1345 19.0097 36.1345 17.6V12.647H43.9958V17.6C43.9958 19.0097 45.126 20.14 46.5358 20.14C47.9328 20.14 49.0757 19.0097 49.0757 17.6V12.647H56.9244V17.6C56.9244 19.0097 58.0674 20.14 59.4644 20.14C60.8741 20.14 62.0043 19.0097 62.0043 17.6V12.647H69.8656V17.6C69.8656 19.0097 71.0087 20.14 72.4056 20.14C73.8153 20.14 74.9456 19.0097 74.9456 17.6V12.647H82.807V17.6C82.807 19.0097 83.95 20.14 85.347 20.14C86.7439 20.14 87.8869 19.0097 87.8869 17.6V12.647H88.7252C95.2784 12.647 100.6 17.981 100.6 24.5215Z" fill="#0074B7"/>
<path d="M16.8317 44.5951H25.9452C27.3473 44.5951 28.4852 43.4572 28.4852 42.0551C28.4852 40.6531 27.3473 39.5151 25.9452 39.5151H16.8317C15.4296 39.5151 14.2917 40.6531 14.2917 42.0551C14.2917 43.4572 15.4296 44.5951 16.8317 44.5951Z" fill="#CCCCCC"/>
<path d="M37.9061 44.5951H47.0196C48.4217 44.5951 49.5596 43.4572 49.5596 42.0551C49.5596 40.6531 48.4217 39.5151 47.0196 39.5151H37.9061C36.504 39.5151 35.3661 40.6531 35.3661 42.0551C35.3661 43.4572 36.504 44.5951 37.9061 44.5951Z" fill="#CCCCCC"/>
<path d="M58.9804 44.5951H68.0939C69.496 44.5951 70.6339 43.4572 70.6339 42.0551C70.6339 40.6531 69.496 39.5151 68.0939 39.5151H58.9804C57.5783 39.5151 56.4404 40.6531 56.4404 42.0551C56.4404 43.4572 57.5771 44.5951 58.9804 44.5951Z" fill="#CCCCCC"/>
<path d="M80.0548 44.5951H89.1683C90.5704 44.5951 91.7083 43.4572 91.7083 42.0551C91.7083 40.6531 90.5704 39.5151 89.1683 39.5151H80.0548C78.6528 39.5151 77.5148 40.6531 77.5148 42.0551C77.5148 43.4572 78.6515 44.5951 80.0548 44.5951Z" fill="#CCCCCC"/>
<path d="M16.8317 58.4228H25.9452C27.3473 58.4228 28.4852 57.2849 28.4852 55.8828C28.4852 54.4807 27.3473 53.3428 25.9452 53.3428H16.8317C15.4296 53.3428 14.2917 54.4807 14.2917 55.8828C14.2917 57.2849 15.4296 58.4228 16.8317 58.4228Z" fill="#CCCCCC"/>
<path d="M37.9061 58.4228H47.0196C48.4217 58.4228 49.5596 57.2849 49.5596 55.8828C49.5596 54.4807 48.4217 53.3428 47.0196 53.3428H37.9061C36.504 53.3428 35.3661 54.4807 35.3661 55.8828C35.3661 57.2849 36.504 58.4228 37.9061 58.4228Z" fill="#CCCCCC"/>
<path d="M58.9804 58.4228H68.0939C69.496 58.4228 70.6339 57.2849 70.6339 55.8828C70.6339 54.4807 69.496 53.3428 68.0939 53.3428H58.9804C57.5783 53.3428 56.4404 54.4807 56.4404 55.8828C56.4404 57.2849 57.5771 58.4228 58.9804 58.4228Z" fill="#CCCCCC"/>
<path d="M80.0548 58.4228H89.1683C90.5704 58.4228 91.7083 57.2849 91.7083 55.8828C91.7083 54.4807 90.5704 53.3428 89.1683 53.3428H80.0548C78.6528 53.3428 77.5148 54.4807 77.5148 55.8828C77.5148 57.2849 78.6515 58.4228 80.0548 58.4228Z" fill="#CCCCCC"/>
<path d="M16.8317 72.248H25.9452C27.3473 72.248 28.4852 71.11 28.4852 69.708C28.4852 68.3059 27.3473 67.168 25.9452 67.168H16.8317C15.4296 67.168 14.2917 68.3059 14.2917 69.708C14.2917 71.11 15.4296 72.248 16.8317 72.248Z" fill="#CCCCCC"/>
<path d="M80.0548 72.248H89.1683C90.5704 72.248 91.7083 71.11 91.7083 69.708C91.7083 68.3059 90.5704 67.168 89.1683 67.168H80.0548C78.6528 67.168 77.5148 68.3059 77.5148 69.708C77.5148 71.11 78.6515 72.248 80.0548 72.248Z" fill="#CCCCCC"/>
<path d="M103.141 107.844H73.8026C72.4006 107.844 71.2626 108.982 71.2626 110.384C71.2626 111.786 72.4006 112.924 73.8026 112.924H103.142C104.544 112.924 105.682 111.786 105.682 110.384C105.682 108.982 104.544 107.844 103.141 107.844Z" fill="#CCCCCC"/>
<path d="M32.1974 107.844H2.85915C1.45707 107.844 0.319153 108.982 0.319153 110.384C0.319153 111.786 1.45707 112.924 2.85915 112.924H32.1974C33.5995 112.924 34.7374 111.786 34.7374 110.384C34.7374 108.982 33.6008 107.844 32.1974 107.844Z" fill="#CCCCCC"/>
<path d="M53 67.6125C40.5032 67.6125 30.3432 77.7725 30.3432 90.2693C30.3432 102.766 40.5032 112.926 53 112.926C65.4968 112.926 75.6568 102.766 75.6568 90.2693C75.6568 77.7725 65.4968 67.6125 53 67.6125ZM53 107.846C43.3099 107.846 35.4232 99.9594 35.4232 90.2693C35.4232 80.5792 43.3099 72.6925 53 72.6925C62.6901 72.6925 70.5768 80.5792 70.5768 90.2693C70.5768 99.9594 62.6901 107.846 53 107.846Z" fill="#CCCCCC"/>
<path d="M53 72.6926C43.3099 72.6926 35.4232 80.5793 35.4232 90.2694C35.4232 99.9595 43.3099 107.846 53 107.846C62.6901 107.846 70.5768 99.9595 70.5768 90.2694C70.5768 80.5793 62.6901 72.6926 53 72.6926ZM61.1026 94.7906C62.1059 95.7812 62.1059 97.3814 61.1026 98.372C60.6073 98.8673 59.9596 99.1213 59.3119 99.1213C58.6642 99.1213 58.0165 98.8673 57.5212 98.372L53 93.8635L48.4788 98.372C47.9835 98.8673 47.3358 99.1213 46.6881 99.1213C46.0404 99.1213 45.38 98.8673 44.8847 98.372C43.8941 97.3814 43.8941 95.7812 44.8847 94.7906L49.4059 90.2694L44.8847 85.7482C43.8941 84.7576 43.8941 83.1574 44.8847 82.1668C45.888 81.1635 47.4882 81.1635 48.4788 82.1668L53 86.6753L57.5212 82.1668C58.5118 81.1635 60.112 81.1635 61.1026 82.1668C62.1059 83.1574 62.1059 84.7576 61.1026 85.7482L56.5941 90.2694L61.1026 94.7906Z" fill="#0074B7"/>
<path d="M61.1026 94.7906C62.1059 95.7812 62.1059 97.3814 61.1026 98.372C60.6073 98.8673 59.9596 99.1213 59.3119 99.1213C58.6642 99.1213 58.0165 98.8673 57.5212 98.372L53 93.8635L48.4788 98.372C47.9835 98.8673 47.3358 99.1213 46.6881 99.1213C46.0404 99.1213 45.38 98.8673 44.8847 98.372C43.8941 97.3814 43.8941 95.7812 44.8847 94.7906L49.4059 90.2694L44.8847 85.7482C43.8941 84.7576 43.8941 83.1574 44.8847 82.1668C45.888 81.1635 47.4882 81.1635 48.4788 82.1668L53 86.6753L57.5212 82.1668C58.5118 81.1635 60.112 81.1635 61.1026 82.1668C62.1059 83.1574 62.1059 84.7576 61.1026 85.7482L56.5941 90.2694L61.1026 94.7906Z" fill="white"/>
</svg>
