<svg width="21" height="21" viewBox="0 0 21 21" fill="none" xmlns="http://www.w3.org/2000/svg">
<path d="M18.5427 11.6592L17.1451 6.53274C16.7354 5.03092 15.8452 3.71178 14.6157 2.78503C13.3863 1.85827 11.8883 1.37707 10.3599 1.41793C8.83143 1.45879 7.36023 2.01935 6.18014 3.01051C5.00004 4.00167 4.17878 5.36655 3.84689 6.8882L2.76488 11.8489C2.64536 12.397 2.64813 12.9655 2.77297 13.5124C2.89781 14.0593 3.14154 14.5707 3.48616 15.0087C3.83078 15.4467 4.2675 15.8002 4.76407 16.0431C5.26064 16.286 5.80438 16.4121 6.35515 16.4121H7.17457C7.34339 17.2597 7.79445 18.0218 8.45131 18.5691C9.10817 19.1165 9.93045 19.4155 10.7788 19.4155C11.6272 19.4155 12.4495 19.1165 13.1063 18.5691C13.7632 18.0218 14.2142 17.2597 14.3831 16.4121H14.9995C15.5664 16.4122 16.1257 16.2785 16.6337 16.0217C17.1416 15.7649 17.5845 15.3919 17.9276 14.9317C18.2707 14.4715 18.5048 13.9367 18.6117 13.369C18.7185 12.8013 18.6944 12.2161 18.5427 11.6592ZM10.7788 17.9119C10.324 17.91 9.88097 17.7649 9.51019 17.4964C9.13942 17.228 8.85906 16.8492 8.70747 16.4121H12.8502C12.6986 16.8492 12.4182 17.228 12.0474 17.4964C11.6767 17.7649 11.2336 17.91 10.7788 17.9119ZM16.756 14.0236C16.551 14.3009 16.2855 14.5255 15.9804 14.6798C15.6754 14.834 15.3392 14.9137 14.9987 14.9123H6.35515C6.02473 14.9122 5.69853 14.8365 5.40065 14.6907C5.10276 14.545 4.84079 14.3329 4.63406 14.0701C4.42734 13.8073 4.28114 13.5005 4.20626 13.1724C4.13138 12.8443 4.12973 12.5032 4.20143 12.1743L5.28271 7.21292C5.54335 6.01771 6.18841 4.94563 7.11532 4.1671C8.04224 3.38857 9.19782 2.94828 10.3984 2.91622C11.5989 2.88415 12.7755 3.26216 13.7411 3.99014C14.7068 4.71812 15.406 5.75429 15.7277 6.93395L17.1252 12.0604C17.2176 12.3944 17.2323 12.7457 17.1682 13.0865C17.1041 13.4273 16.9629 13.7482 16.756 14.0236Z" fill="#003B73"/>
</svg>
